<?xml version="1.0" encoding="UTF-8"?>
<svg id="Layer_1" data-name="Layer 1" xmlns="http://www.w3.org/2000/svg" viewBox="0 0 809.21 493.86">
  <defs>
    <style>
      .cls-1 {
        fill: #f2e4d4;
      }

      .cls-1, .cls-2, .cls-3, .cls-4, .cls-5, .cls-6, .cls-7, .cls-8, .cls-9, .cls-10, .cls-11, .cls-12, .cls-13, .cls-14, .cls-15, .cls-16, .cls-17, .cls-18, .cls-19, .cls-20, .cls-21, .cls-22, .cls-23, .cls-24 {
        stroke-width: 0px;
      }

      .cls-2 {
        fill: #fefefe;
      }

      .cls-3 {
        fill: #f1b86a;
      }

      .cls-4 {
        fill: #14536f;
      }

      .cls-5 {
        fill: #f5f5f8;
      }

      .cls-6 {
        fill: #1c536c;
      }

      .cls-7 {
        fill: #f1e4d4;
      }

      .cls-8 {
        fill: #f1b66a;
      }

      .cls-9 {
        fill: #1ccc82;
      }

      .cls-10 {
        fill: #f1533e;
      }

      .cls-11 {
        fill: #ffca62;
      }

      .cls-12 {
        fill: #f1b76c;
      }

      .cls-25 {
        letter-spacing: 0em;
      }

      .cls-13 {
        fill: #fd7f70;
      }

      .cls-14 {
        fill: #f2cfa3;
      }

      .cls-15 {
        fill: #21576f;
      }

      .cls-26 {
        letter-spacing: -.08em;
      }

      .cls-16 {
        fill: #265970;
      }

      .cls-27 {
        fill: #fff;
        font-family: Kanit-Bold, Kanit;
        font-size: 72.47px;
        font-weight: 700;
      }

      .cls-28 {
        letter-spacing: 0em;
      }

      .cls-17 {
        fill: #f1e4d3;
      }

      .cls-18 {
        fill: #fe7037;
      }

      .cls-19 {
        fill: #f989bf;
      }

      .cls-29 {
        letter-spacing: -.05em;
      }

      .cls-20 {
        fill: #19536e;
      }

      .cls-21 {
        fill: #f1533f;
      }

      .cls-22 {
        fill: #17516c;
      }

      .cls-23 {
        fill: #f2cfa2;
      }

      .cls-24 {
        fill: #fe7f71;
      }
    </style>
  </defs>
  <path class="cls-5" d="m229.26,107.83h10.35c12.44,1.18,21.24,7.87,27.55,18.27,2.37,3.91,3.5,8.27,4.05,12.79v11.44c-1.33,10.19-6.62,18-14.62,24.13-5,3.82-10.67,5.97-16.97,6.38h-10.9c-10.28-1.36-18.17-6.67-24.28-14.83-3.48-4.65-5.39-9.96-6.23-15.68v-11.99c1.34-10.18,6.61-18,14.62-24.11,4.84-3.7,10.39-5.72,16.44-6.39Z"/>
  <path class="cls-18" d="m443.96,231.65c-.43-6.24-.83-12.02-1.23-17.81-.82-11.9-1.69-23.8-2.38-35.7-.13-2.15-1.02-2.88-2.91-3.44-16.1-4.74-32.16-9.57-48.24-14.38-.81-.24-1.61-.56-2.89-1,4.02-3.71,7.78-7.22,11.59-10.69,9.29-8.48,18.56-16.98,27.92-25.38,1.55-1.39,1.78-2.49,1-4.42-6.68-16.42-13.25-32.88-20.02-49.75,6.42.99,12.5,1.91,18.56,2.88,11.55,1.85,23.09,3.7,34.63,5.62,1.89.31,2.85-.24,3.81-1.94,8.14-14.55,16.39-29.04,24.62-43.54.52-.91,1.07-1.81,1.88-3.18,2.94,5.14,5.66,9.88,8.36,14.64,5.98,10.55,11.99,21.08,17.86,31.69,1.13,2.05,2.33,2.59,4.61,2.22,16.68-2.75,33.37-5.38,50.06-8.03.73-.12,1.48-.1,2.49-.17-5.17,12.87-10.24,25.51-15.31,38.15-1.45,3.61-2.72,7.32-4.42,10.81-1.16,2.39-.66,3.77,1.23,5.47,12.57,11.32,25.03,22.76,37.52,34.16.45.42,1.16.68,1.08,1.71-12.43,3.73-24.92,7.48-37.43,11.23-4.56,1.36-9.1,2.78-13.69,4.02-1.77.48-2.3,1.38-2.41,3.16-.98,15.59-2.06,31.17-3.12,46.75-.15,2.16-.35,4.31-.57,7.01-4.59-3.16-8.84-6.07-13.08-9-10.34-7.15-20.7-14.27-30.97-21.52-1.73-1.22-2.85-1.12-4.53.07-13.58,9.52-27.23,18.94-40.86,28.38-.87.6-1.78,1.14-3.13,2Z"/>
  <path class="cls-24" d="m271.64,378.23c-12.69,3.56-25.65,1.26-38.48,1.68-3.58.12-4.48,1.1-4.43,4.55.2,11.9.11,23.81.07,35.71-.02,8.08-4.34,12.45-12.36,12.46-16.82.03-33.64.03-50.45,0-8.1-.01-12.35-4.25-12.39-12.38-.05-10.71-.01-21.43,0-32.14q0-8.07-7.85-8.07c-39.29,0-78.58.02-117.88,0-9.73,0-13.61-3.82-13.62-13.4-.02-13.84.07-27.68,0-41.52-.04-7.32,2.45-13.54,6.99-19.25,25.85-32.47,51.58-65.03,77.35-97.56,13.86-17.48,27.84-34.87,41.53-52.48,4.7-6.04,10.41-8.79,18-8.72,18.9.17,37.8.04,56.7.06,10.08.01,13.98,3.96,13.98,14.08,0,49.56.04,99.11-.09,148.67-.01,3.85.8,5.16,4.87,4.99,8.17-.34,16.37-.08,24.55-.07,6.68-3.06,14.18-.24,17.04,6.39,1.02,2.36,1.34,4.84,1.35,7.39.03,12.6.09,25.21-.03,37.81-.04,4.51-.68,8.92-4.87,11.79Z"/>
  <path class="cls-24" d="m703.14,308.7c-1.17,5.97-2.3,11.94-3.52,17.9-.52,2.55-.32,3.97,2.92,4.5,9.66,1.57,19.25,3.58,28.87,5.45,8.49,1.65,11.88,6.67,10.27,15.02-2.53,13.11-5.01,26.23-7.49,39.35-1.46,7.72-6.7,11.32-14.49,9.86-9.92-1.86-19.85-3.65-29.74-5.7-2.66-.55-3.56-.16-4.07,2.69-2.16,12.12-4.64,24.18-6.99,36.27-1.46,7.53-6.66,11.08-14.22,9.62-16.6-3.21-33.21-6.42-49.8-9.69-8.09-1.6-11.51-6.6-10-14.84,1.79-9.78,3.75-19.53,5.75-29.26,2.01-9.77,2.07-9.73-7.83-11.63-34.08-6.56-68.16-13.15-102.24-19.74-.71-.14-1.38-.5-2.07-.76-.29-.79.11-1.41.48-2.07,2.55-4.52,1.54-6.35-3.72-6.79-7.12-.59-8.58-2.27-7.93-9.13.19-1.95.36-4.03-.55-5.71-3.74-6.85-.81-13.64-.09-20.45.27-2.52,2.04-3.96,4.17-4.83,2.94-1.19,4.07-3.3,3.76-6.32-.8-7.86,4.78-11.32,10.27-14.78.99-.63,2.39-.86,2.87-1.97,1.23-2.85,4.38-4.25,5.67-6.46,2.73-4.7,9.13-5.91,10.31-11.69,4.27-1.35,6.42-4.4,7.87-8.56.49-1.4,3.45-1.37,5.41-1.05,3.17.51,5.57-.38,6.91-3.48.49-1.13,1.27-2.13,2.45-2.47,2.63-.74,4.59-2.03,5.02-4.95.04-.29.21-.68.45-.75,4.65-1.22,6.41-5.65,9.62-8.43,3.93-3.4,6.89-7.62,10.71-11.06.75-.67,1.05-2.02,2.03-2.3,3.71-1.05,5.06-3.87,7.16-6.84,2.15-3.05,5.99-5.39,8.69-8.6,1.17-1.38,3.68-.67,5.6-.75,1.47-.06,3.86.34,4.13-.89,1.17-5.27,8.02-5.71,8.95-11.01.1-.56.61-1.07,1.13-1.34,5.83-3.11,10.07-7.93,14.07-13.01.67-.85,1.72-1.13,2.72-1.44.86-.26,2.21-.5,2.28-1.21.59-5.76,6.92-6.79,9.07-11.25,1.45-3.01,4.34-2.91,7.01-2.53,3.26.47,5.58-.07,6.26-3.77.31-1.7,1.7-2.31,3.29-2.53,6.04-.83,12.15-.34,18.2-.88.73-.07,1.48.17,2.13.58,1.65,1.04,4.87,8.65,4.34,10.7-2.26,8.79.26,16.03,6.9,22.01.66.6,1.24,1.29,1.89,1.9,6.67,6.24,8.93,5.88,15.62-.31,3.46-3.2,8.16-5,12.17-7.63,1.51-.99,2.35.22,2.41,1.48.2,4.59,1.09,9.15.62,13.76-.14,1.32-.52,2.8-1.73,3.5-2.33,1.35-3.75,2.76-2.13,5.64.53.94-.31,2.03-1.13,2.72-2.51,2.11-2.75,4.81-2.09,7.72.95,4.14.25,8.37-.12,12.4-.49,5.32,1.05,9.76,3.11,14.3-.3,2.58-.59,5.15-.89,7.73.96,1.55.48,3.16.17,4.74-2.89,14.63-5.77,29.26-8.59,43.9-.37,1.9-.78,3.77-2.3,5.15Z"/>
  <path class="cls-24" d="m714.75,247.18c-3.76-2.1-4.67-5.97-4.37-9.5.34-4.07-.78-8.17.51-12.2.5-1.56-.05-3.19-.34-4.82-.57-3.17-1.42-6.58,2.45-8.6,1.55-.81,1.67-1.67.18-3-2.48-2.22-.66-4.17,1.37-4.62,3.83-.85,3.83-4.04,3.39-6.14-.84-4.02-.22-8.01-.81-12.46-1.78,2.79-6.3,1.91-6.55,6.09,0,.15-.57.46-.72.38-3.95-2.07-5.07,1.52-6.96,3.48-5.32,5.51-9.64,5.08-16.24-1.45-3.02-2.99-6.36-6.27-7.96-9.74-1.78-3.86-3.14-9.3-.87-13.61,2.25-4.27-1.89-5.74-2.44-8.64-1.04-5.47-4.67-1.79-7.22-2.22-4.3-.72-8.48.32-12.72.21-2.09-.06-3.35.38-3.38,2.89-.05,3.59-2.32,4.32-5.48,3.79-3.62-.61-6.54-1.34-8.72,3.73-1.5,3.49-7.09,4.91-7.98,9.89-.15.82-1.95,1.21-3.2,1.14-1.66-.09-2.36.98-2.9,2.29-.11.27-.08.69-.27.84-4.07,3.22-7,7.54-11.51,10.49-3.91,2.56-7.33,6.52-9.64,10.61-1.29,2.27-1.93,3.61-4.53,3.47-1.48-.08-2.98.07-4.46-.03-2.7-.18-3.58,1.09-5.09,3.47-2.54,4-6.13,8.41-9.61,10.69-5.22,3.4-8.74,7.73-12.54,12.16-.66.77-1.4,1.83-2.26,2.02-2.52.57-3.78,1.92-4.18,4.47-.14.92-.89,2.13-1.69,2.49-3.03,1.38-6.91,1.76-6.46,6.54-5.06.15-6.58,4.88-9.74,7.49-.33.27-.85.59-1.21.51-5.5-1.16-9.94-.77-10.03,6.45-4.56.63-5.68,5.51-8.61,7.29-3.13,1.9-4.36,5.46-6.92,6.59-5.08,2.23-5.25,10.29-12.22,9.65-1.49,4.84-8.92,6.35-7.09,13.2.93,3.46-.19,6.19-4.42,7.28-4.72,1.21-3.68,5.9-4.32,9.27-.96,5.11-1.83,10.31,1.08,15.31,1.22,2.09.76,4.63.28,6.98-.76,3.72,1.72,6.97,5.38,6.43,3.4-.51,6.53-.16,8.06,2.89,1.56,3.11-1.46,5.03-3.28,7.08-2.32-.27-4.65-.54-6.97-.82-7.02,2.3-15.35-5.32-14.81-12.47.58-7.6,2.62-14.92,3.92-22.38,1.56-8.92,3.02-17.88,5.56-26.61,1.02-3.49,2.44-6.93,5.13-9.25,4.94-4.26,4.42-9.5,3.88-15.44-9.08,6.67-16.16,14.08-18.45,25.17-3.19,15.43-6.44,30.85-8.94,46.4-1.62,10.05,5.75,20.56,15.61,23.01,1.67.41,3.68.21,4.46,2.33-10.27,27.64-27.92,48.41-55.69,59.73-3.7,1.51-7.41,3.09-11.43,3.66-2.6-.69-2.1-2.94-2.19-4.71-.3-6.08.81-12.09,1.11-18.14.47-9.3,1.42-18.56,1.54-27.89.09-6.67-.74-13.26-1.09-19.88-.29-.98-.33-1.97-.11-2.96,8.46-13.46,17.11-26.82,25.83-40.12,3.92-5.97,7.8-11.96,11.63-17.99,1.9-2.15,1.92-4.36.53-6.85-1.57-2.81-2.92-5.74-4.33-8.64-.69-1.41-1.74-2.78-1.05-4.53,1.79-1.12,2.68.47,3.68,1.35,1.76,1.54,3.35,3.29,5.01,4.94q3.91,3.88,7.12-.53c1.2-1.47,1.32-3.08-.03-4.39-5.3-5.12-9.34-11.38-14.91-16.25-1.34-1-2.23-2.38-3.27-3.63-1.85-2.22-1.7-4.26.26-6.33,2.37-2.51,4.12-5.44,5.66-8.51,8.07-16.09.12-33.07-17.49-37.32-5.23-1.26-5.61-1.71-5.66-7.3-.05-5.2,0-10.4-.02-15.6,0-1.48.06-2.99-.38-4.43-.54-1.78-1.43-3.59-3.45-3.61-2.45-.02-2.18,2.31-2.62,3.95-.49,1.85.69,5-1.92,5.18-2.16.15-2.44-3-3.22-4.84-1.57-3.69-3.04-7.42-4.48-11.17-1.23-2.99-2.24-6.08-3.73-8.96-1.41-2.73-3.55-4.31-6.8-3.68-3.07.6-4.29,2.83-4.77,5.64-.63,3.67.22,7.33.04,11.01-.06,10.42.01,20.83-.05,31.23-.01,2.19.31,4.52-1.5,6.3-2.1,1.11-4.08.12-6.04-.44-9.8-2.79-19.67-2.77-29.59-.85-11.82,2.28-19.59,9.41-24.14,20.33-3.01,7.22-4.24,14.84-4.89,22.57-1.3,15.58-.8,31.19-.93,46.79-.23,4.44-.25,8.89-.07,13.32.16,3.9-1.24,6.82-4.19,9.29-10.52,8.81-18.18,19.77-23.99,32.11-5.66,12.97-9.16,26.58-12.11,40.36-.73,3.42-.55,7.13-2.93,10.08-4.02-3.22-6.85-7.46-9.9-11.52-2.08-1.51-.94-3.46-.67-5.25.73-4.8,3.38-9.11,3.62-14.04,0-.49.07-.97.17-1.45.3-16.33.23-32.65.05-48.97-.12-10.96-8.59-19.23-19.95-20.12-2.18-.17-4.51.28-6.37-1.38,0-27.02-2.15-54.23,5.48-80.67,8.71-30.17,25.39-54.22,54.57-68.05,14.3-6.77,29.61-9.84,45.25-10.81,21.78-1.36,43.38-.16,64.27,7.1,28.76,9.99,47.27,30.47,58.94,57.82,6.55,15.35,9.42,31.55,9.95,48.16.25,7.85,1.38,15.66.71,24.83,5.81-4.91,10.75-9.02,15.63-13.21,43.19-37.09,86.37-74.19,129.54-111.31,5.13-4.41,10.56-6.39,17.61-4.9,19.75,4.18,39.62,7.77,59.41,11.7,6.73,1.34,10.37,6.89,9.09,13.49-4.39,22.73-8.81,45.46-13.24,68.18-.11.56-.44,1.08-.67,1.62Z"/>
  <path class="cls-23" d="m458.35,299.69c-9.89,15.4-19.74,30.82-29.71,46.17-2.4,3.7-4.26,7.78-7.4,10.99-1.81-4.09-.79-8.48-1.29-12.71-1.07-8.92-2.45-17.67-6.85-23.02,2.95,3.16,4.58,9.45,5.83,15.85,1.23,6.26,1.43,12.62,1.39,18.99-.01,1.63-.09,3.26.39,4.85,1.04,17.68-2.84,34.87-5.28,52.19-2.68,19.06-1.48,37.93,2.62,56.67.9,4.13,2.05,7.62,7.45,7.7,2.98.04,5.02,2.55,6.36,5.09,1.13,2.14,2.5,4.01,4.17,5.7-6.85,5.5-14.97,4.33-22.89,4.48-4.36.08-6.15-1.94-6.65-5.97-1.88-15.11-4.53-30.09-7.76-44.98-.88-4.06-2.29-6.11-6.54-5.5,3.46-2.42,2.63-5.52,1.71-8.9-3.43-12.67-7.93-24.91-14.14-36.5-1.27-2.37-2.84-4.53-4.53-6.61-.64-.79-1.35-1.77-2.57-1.23-1.08.47-1.29,1.61-1.4,2.63-.52,4.8-.35,9.38,2.62,13.64,5.63,8.05,9.12,17.01,10.19,26.81.38,3.48,1.27,7.08-.79,10.41-.88,12.5-4.91,24.01-11.55,35.29,3.23.6,6.05.14,8.65,1.19,4.28,1.72,6.67,4.83,7.37,9.27.58,3.69-1.1,5.9-4.84,5.75-3.45-.15-6.31.59-8.94,2.92-1.69,1.5-3.98,1.75-6.3,1.75-20.08-.05-40.17-.08-60.25.02-3.61.02-5.83-1.32-7.25-4.62-5.17-12.08-8.42-24.63-9.85-37.7-1.63-14.84-1.15-29.61.92-44.36,2.75-17.55,6.82-34.73,14.16-51,13.23-4.04,22.05-13.24,28.95-24.7,3.45-5.73,6.2-11.75,7.9-18.24,4.9-5.16,10.75-9.11,16.66-12.99.45-.08.9-.07,1.35.02,1.1.45,1.84,1.34,2.63,2.16,5.73,9.02,16.36,11.73,26.84,5.11,7.41-4.68,12.81-10.92,16.13-19.01,5.01-12.19,6.72-24.83,5.17-37.91-.08-4.26-.13-8.52-.83-11.94,1.93,14.03.99,28.59-4.49,42.6-5.16,13.18-20.6,23.93-33.11,23.45-3.92-.15-7.64-1.07-10.77-3.64-3.58-5.04-2.33-9.34,1.23-14.06,6.41-8.49,12.92-16.93,18.52-26.01,1.67-2.63,3.5-5.2,5.53-7.5,3.6-4.07,5.93-8.2,4.97-13.97-.55-3.32,1.35-6.47,3.5-8.9,4.03-4.56,4.87-9.61,3.52-15.28-.14-.59-.07-1.18.13-1.75,1.59-1.2,1.05-2.95,1.06-4.5.04-9.86-.01-19.72.02-29.58,0-1.58-.45-3.26.71-4.68,1.03-.56,1.99-.06,2.97.17,4.5,1.06,8.74,1.05,12.08-2.87.47-.55,1.11-.96,1.93-.7,2.16,5.42,4.31,10.84,6.8,17.1.98-3.61.21-6.29,1.03-8.89.95-3,2.56-3.39,4.99-1.9,2.51,1.54,3.47,3.87,3.45,6.78-.06,6.53.12,13.07-.08,19.6-.09,2.8.89,3.95,3.59,4.37,11.31,1.76,17.8,9.08,21.94,19.16,2.11,5.15,1.49,10.1-.35,15.12-1.65,4.49-3.53,9.02-6.93,12.3-3.2,3.08-2.58,5.3-.03,7.95.72.74,1.5,1.42,2.25,2.12,4.32,5.84,8.68,11.65,13.1,17.42.91,1.19,1.86,2.37,1.34,4.03-3.15,5.98-3.42,5.99-7.99,1.48-2.68-2.65-4.93-5.78-8.24-7.77-.54,3.01,1.64,5.2,2.37,7.83,1.17,4.21,4.04,8,3.1,12.73Z"/>
  <path class="cls-10" d="m487.88,367.64c-5.11-1.36-10.18-2.42-14.28-6.47-7.02-6.92-8.3-14.93-6.35-24.11,3.05-14.31,5.92-28.65,8.79-42.99,1.76-8.81,7.31-15.07,13.71-20.77,1.99-1.77,4.1-3.38,6.94-5.7-.69,7.17,2.39,14.08-4.61,19.5-3.83,2.96-4.93,8.07-5.9,12.67-2.89,13.73-5.52,27.52-8.1,41.31-1.57,8.4,2.36,13.57,10.92,14.95.86.14,1.68.57,2.51.86-.95,3.67-1.77,7.39-3.64,10.76Z"/>
  <path class="cls-23" d="m703.14,308.7c3.24-16.64,6.47-33.29,9.73-49.93.25-1.3.66-2.57.99-3.86,13.77,1.81,24.23,17.28,21.85,30.78-2.54,14.4-16.53,24.2-29,22.93-1.17-.12-2.38.04-3.57.07Z"/>
  <path class="cls-14" d="m285.09,375.57c1.24,2.82-1.05,4.92-1.55,7.39-.77,3.82-2.84,7.39-2.19,11.49-3.44,4.59-2.9,10.2-3.29,15.33-1.58,20.66.86,40.87,8.88,60.14,2.5,6.01,5.72,11.73,8.66,17.56.79,1.56,2.02,2.92,2.28,5.11-7.11-.24-12.15-3.63-15.76-9.36-6.54-10.38-10.96-21.67-14.06-33.5-5.64-24.11-1.85-46.73,10.87-67.87,1.49-2.47,2.23-6.03,6.15-6.27Z"/>
  <path class="cls-21" d="m258.2,303.24c8.44-.4,16.34.88,22.3,7.61,3.22,3.64,5.37,7.91,5.39,12.87.09,15.77.05,31.53.03,47.3,0,1.3.29,2.72-.95,3.73-4.15.49-4.72,4.42-6.76,6.96-.96,1.2-.98,3.97-3.75,2.54-.94-2.01-1.88-4.01-2.82-6.02,3.97-5.91,3.63-12.59,3.55-19.27-.11-9.67-.02-19.33-.03-29,0-11.42-3.72-15.1-15.23-15.11-.59,0-1.19,0-1.78,0,.02-3.87.03-7.75.05-11.62Z"/>
  <path class="cls-3" d="m436.03,488.18c-2.31.12-3.87-.48-4.52-3.12-1.11-4.52-3.98-7.18-8.93-6.74-2.77.25-3.81-1.03-4.55-3.61-4.79-16.71-6.07-33.82-5.09-51,.6-10.56,2.63-21.07,4.41-31.53,1.8-10.54,2.11-21.17,2.59-31.79.34-.37.46-1.05,1.19-.88,1.29,11.33,2.31,22.67.71,34.07-.68,4.84-.08,9.72-.82,14.64-.98,6.56-.82,13.29-1.12,19.95-.05,1.04-.07,2.1.86,2.87-1.9,6.19.14,12.35.37,18.49.22,6.02,1.82,11.96,3.23,17.87,1.08,4.52,2.64,7.5,8.18,6.67,3.13-.47,6.16.99,6.57,4.56.4,3.46,1.72,7.6-3.08,9.54Z"/>
  <path class="cls-13" d="m383.29,436.46c.58-13.83-2.99-26.43-11.11-37.7-3.25-4.5-2.64-9.6-1.96-14.61.19-1.36.71-3.23,2.18-3.66,1.69-.5,2.48,1.4,3.38,2.44,4.73,5.47,7.61,12.05,10.52,18.54,4.07,9.09,6.71,18.69,9.51,28.23,1.12,3.8.88,6.16-3.61,6.51-2.97.09-5.94.17-8.9.26Z"/>
  <path class="cls-1" d="m274.46,384.25c3.65-1.9,4.18-6.09,6.47-9.01,1.5-1.92,2.48-2.06,4.05-.5.07.27.11.55.11.83-5.76,5.82-8.81,13.28-12,20.56-4.83,10.98-6.68,22.71-6.69,34.62,0,6.32,1.08,12.64,1.68,18.97-3.36-9.87-4.31-19.99-3.16-30.34,1.23-11.06,3.87-21.7,9.01-31.65.51-.99.37-2.31.54-3.47Z"/>
  <path class="cls-2" d="m155.5,241.61c0,23.36,0,46.72.01,70.08,0,1.79-.09,3.17-2.53,3.17-18.57-.06-37.15-.03-56.87-.03,19.9-25.07,39.23-49.42,58.56-73.76.28.18.56.37.83.55Z"/>
  <path class="cls-2" d="m641,243.04c-2.1,11.21-4,21.49-5.97,31.76-2.43,12.66-4.97,25.3-7.36,37.97-.49,2.58-1.14,3.69-4.26,3.05-16.99-3.47-34.03-6.65-51.06-9.94-.99-.19-2.03-.3-2.88-1.46,23.6-20.26,47.2-40.51,71.54-61.39Z"/>
  <path class="cls-2" d="m399.26,212.42c2.9,5.74,2.1,11.9-2,16.63-3.37,3.89-5.08,8.42-3.85,13.54.48,2,.2,3.27-1.03,4.8-3.42,4.26-6.67,8.66-9.99,13-6.78,8.07-12.79,16.76-19.76,24.68-2.9,3.3-5.31,6.91-2.96,11.69.46.93.36,2.06-.58,2.86-5.35,4.18-10.71,8.36-16.06,12.54-1.29,2.22-2.96,4.05-5.24,5.31-3.41,1.88-3.96,1.57-4.08-2.24-.14-4.58.37-9.18-.3-13.75-.13-20.02-1.02-40.11,2.54-59.95,3.84-21.44,17.14-32.47,38.89-32.99,8.41-.2,16.59.65,24.42,3.88Z"/>
  <path class="cls-7" d="m333.4,301.48c1.81,5.27-.04,10.81,1.14,16.35,3.25-1.43,5.81-3.64,8.48-5.67-3.32,14.68-11.36,26.5-22.51,36.24-3.53,3.08-7.78,5.37-12.37,6.8-.98.31-1.92.97-2.74-.25,5.11-12.04,12.66-22.41,22.46-30.94,3.89-3.39,6.32-6.53,5.56-11.92-.49-3.47-.04-7.08-.02-10.62Z"/>
  <path class="cls-4" d="m418.01,170.26c-5.42,6.48-9.41,7.27-16.98,3.4-.93-3.64-.6-7.36-.33-11.01.25-3.24,2.23-5.39,5.57-6.02,3.52-.67,6.17.68,7.68,3.82,1.53,3.19,2.72,6.54,4.06,9.81Z"/>
  <path class="cls-22" d="m421.14,359.51c-.4.29-.8.59-1.19.88-.54-8.87-.33-17.79-2.46-26.52-1.61-6.61-3.83-12.79-10.79-17.14,4.25-.1,5.75,2.35,7.23,4.46,4.86,6.94,6.04,15.05,6.81,23.2.39,4.13.35,8.3.5,12.45-.03.89-.07,1.78-.1,2.67Z"/>
  <path class="cls-12" d="m469.11,285.42c-3.98-5.62-8-11.21-11.91-16.88-.98-1.42-2.32-2.7-2.53-4.57,5.07,5.53,10.19,11.02,15.2,16.6,1.6,1.77,1.26,3.51-.76,4.85Z"/>
  <path class="cls-8" d="m458.35,299.69c-1.81-5.52-3.67-11.04-5.41-16.58-.39-1.26-1.68-2.63-.06-3.97,1.48,4.7,3.99,8.93,6.31,13.21,1.57,2.89,1.8,5.16-.85,7.34Z"/>
  <path class="cls-3" d="m411.86,249.62c1.85,5.02,1.11,10.27.68,15.31-.77,8.97-2.66,17.83-6.88,25.93-5.2,10-12.97,17.2-24.01,20.15-6.73,1.8-17.22-2.35-19.71-9.96.89-.42,1.76-.15,2.58.19,10.97,4.59,20.24.78,28.86-5.91,9.55-7.41,14.05-17.52,15.91-29.24.87-5.49.36-11.2,2.57-16.47Z"/>
  <path class="cls-6" d="m411.86,249.62c-.81,9.15-1.29,18.39-4.43,27.12-5.2,14.46-15.21,23.72-30.41,26.97-5.33,1.14-10.25-.59-15.07-2.65-.68-.45-1.36-.9-2.03-1.34-.36-.71-.4-1.52.34-1.83.69-.29,1.31.32,1.75.92,7.95,5.18,16.09,4.5,24.06.32,12.91-6.78,19.94-17.73,22.21-32.03,1.64-10.33,2.41-20.65,1.03-31.06-.15-1.12-.55-2.35.74-4.21,1.64,6.26,1.39,12.09,1.82,17.82Z"/>
  <path class="cls-17" d="m362,298.79c-.95-.29-2.18-1.2-2.08.91-.28-.02-.55-.05-.82-.09-3.52-7.8.41-13.16,5.53-18.59,6.22-6.6,10.72-14.72,17.77-20.64-3.45,6.69-8.56,12.22-12.71,18.43-2.45,3.66-5.11,7.2-7.88,10.63-2.65,3.28-.55,6.25.2,9.34Z"/>
  <path class="cls-20" d="m363.43,430.12c1.91,16.09-1.21,31.55-6.03,46.76,6.29,1.92,13.54-2.27,18.69,3.72,1.34,1.56,2.4,3.42,1.53,5.69-1.6-.14-1.2-1.48-1.51-2.36-1.12-3.14-3.3-4.84-6.67-4.88-3.56-.04-7.13-.13-10.69,0-2.76.1-3.77-.5-2.72-3.53,4.65-13.43,6.8-27.29,6.6-41.51-.06-1.37-1.3-2.98.82-3.89Z"/>
  <path class="cls-15" d="m363.43,430.12c-1.11,1.12-.53,2.6-.82,3.89-.91-4.35-1.38-8.84-2.8-13.02-4.06-12-11.5-20.67-24.54-23.42-4.56-.96-8.84.04-13.16,1.26-1.19.34-2.25,1.68-4.21.31,8.6-4.5,16.96-4.87,25.31-.69,10.89,5.46,16.69,14.84,19.4,26.39.4,1.73.55,3.51.81,5.27Z"/>
  <path class="cls-16" d="m408.68,224.97c4.19-1.31,7.29-3.54,7.47-8.23.19-5.05-3.41-7.06-8.17-8.63,5.77-.73,9.66,2.82,9.88,8.12.21,5.31-3.71,9.28-9.17,8.74Z"/>
  <g>
    <path class="cls-19" d="m746.05,359.83h-10.12c-14.97-1.3-26.95-9.26-38.43-17.89-9.47-7.12-15.47-16.78-17.22-28.74-.6-4.14-.95-8.28-.4-12.48.3-2.26-.19-4.57-.65-6.81-1-4.87-1.53-9.8-2.02-14.75v-10.13c.37-4.83,1.73-9.35,4.2-13.53,4.9-8.29,12.09-12.96,21.66-14.09,3-.35,5.92-.17,8.8.52,1.57.38,2.3-.1,2.99-1.46,3.06-6.03,7.53-10.76,13.23-14.4,3.41-2.18,7.19-2.82,11.08-3.25h8.1c4.77.3,9.22,1.52,13.24,4.26,4.49,3.06,8.28,6.75,10.61,11.68,1.04,2.2,2.45,2.84,4.74,2.72,6.9-.37,13.17,1.61,18.86,5.51,12.38,8.48,16.92,25.21,10.51,38.81-.95,2.01-1.92,4.02-3.17,5.87-.53.79-.87,1.56-.04,2.35,4.72,4.43,6.91,9.97,7.2,16.36v6.89c-1.62,13.86-10.58,21.65-22.39,27.02-4.11,1.87-8.54,2.91-12.75,4.53-2.4.93-4.71,2-6.86,3.42-2.88,1.89-6,3.35-9.07,4.88-3.82,1.9-7.95,2.28-12.09,2.71Z"/>
    <path class="cls-2" d="m756.47,293.61c.17,2.28-.05,4.39-.51,6.42-1.3,5.67-.35,11.16,1.1,16.62.77,2.9,1.33,5.82.96,8.82-.9,7.28-7.93,11.56-15.43,9.44-3.26-.92-6.24-2.45-8.5-4.94-4.94-5.43-10.79-9.07-18.04-10.6-3.48-.73-6.54-2.54-9.09-5.1-6.53-6.58-5.02-15.73,3.29-19.81,1.21-.59,2.48-1.14,3.79-1.44,7.16-1.6,13.42-4.84,18.92-9.7,2.29-2.02,5.02-3.5,8.03-4.21,7.85-1.83,15.09,3.73,15.48,11.81.05.95,0,1.89,0,2.68Z"/>
    <path class="cls-2" d="m777.87,329.07c-3.53-.16-6.96-.88-9.91-2.99-6.64-4.74-7.66-12.8-2.52-19.18,5.26-6.52,14.43-9.11,22.36-6.33,9.85,3.46,12.48,14.53,5.22,22.09-4.11,4.28-9.23,6.23-15.14,6.41Z"/>
    <path class="cls-2" d="m706.26,254.23c2.58-.05,5.79,1.7,8.61,4.29,5.82,5.35,7.85,15.24,4.65,22.46-3.66,8.25-12.25,10.69-19.7,5.58-8.29-5.68-10.85-18.63-5.23-26.76,2.46-3.56,5.85-5.54,11.66-5.57Z"/>
    <path class="cls-2" d="m758.18,250.87c-.04,6.42-1.68,11.3-5.6,15.26-7.59,7.67-18.6,5.42-22.33-4.75-2.9-7.92-1.4-15.28,4.5-21.37,7.41-7.65,18.43-5.16,22.17,4.84.84,2.24,1.36,4.53,1.26,6.02Z"/>
    <path class="cls-2" d="m760.83,275.4c.01-10.98,11.46-20.55,22.24-18.58,6.84,1.24,11.3,7.62,10.3,14.71-1.34,9.45-10.08,17-19.6,16.94-7.72-.05-12.94-5.33-12.93-13.06Z"/>
  </g>
  <path class="cls-11" d="m0,164.83c0-17.23,3.39-34.29,9.99-50.21,6.59-15.92,16.26-30.38,28.44-42.57,12.18-12.18,26.65-21.85,42.57-28.44,15.92-6.59,32.98-9.99,50.21-9.99v86.36c-5.89,0-11.72,1.16-17.16,3.41-5.44,2.25-10.39,5.56-14.55,9.72-4.16,4.16-7.47,9.11-9.72,14.55-2.25,5.44-3.41,11.27-3.41,17.16H0Z"/>
  <path class="cls-9" d="m160.15,493.83c-17.94,0-35.87-.02-53.81.04-1.24,0-1.52-.29-1.42-1.47.12-1.52.03-3.05.03-4.58.33-2.91.32-5.85.65-8.77.68-5.95,2.62-11.54,4.91-17.03,4.82-11.57,12.07-21.43,21.41-29.72,7.52-6.67,16.08-11.68,25.51-15.23,6.9-2.6,13.98-4.07,21.35-4.06.15,0,.29-.04.41-.12,3.64-.43,6.38-.76,10.02-1.19,2.87,1.46,5.91,1.43,8.9,1.58,8.11.39,15.56,3.12,22.78,6.5,13.6,6.38,24.57,15.92,33.04,28.3,5.85,8.56,9.82,17.98,12.04,28.11.71,3.25.67,6.61.88,9.93.03.46-.15.94.17,1.36,0,1.77-.06,3.54.02,5.3.03.61-.43,1.09-1.03,1.09-5.74-.05-11.48-.02-17.21-.02h-36.98c-.67-.51-.81-1.23-.91-2.02-.66-5.39-2.47-10.32-6.22-14.36-6.99-7.53-15.54-10.4-25.47-7.51-10.74,3.13-16.52,10.76-18.12,21.69-.12.83-.18,1.65-.93,2.2Z"/>
  <path class="cls-24" d="m188.66,15.4h571.06c10.99,0,19.91,8.92,19.91,19.91v60.25c0,10.99-8.92,19.91-19.91,19.91H155.72V48.34c0-18.18,14.76-32.94,32.94-32.94Z" transform="translate(-2.81 24.82) rotate(-3.03)"/>
  <text class="cls-27" transform="translate(178.73 104.11) rotate(-2.98)"><tspan class="cls-26" x="0" y="0">P</tspan><tspan class="cls-29" x="38.7" y="0">A</tspan><tspan class="cls-25" x="88.56" y="0">GE N</tspan><tspan class="cls-28" x="239.66" y="0">O</tspan><tspan x="290.25" y="0">T FOUND</tspan></text>
</svg>