<svg width="240" height="240" viewBox="0 0 240 240" fill="none" xmlns="http://www.w3.org/2000/svg">
<rect width="240" height="240" rx="120" fill="#DCDFED"/>
<path d="M136.077 123.077C140.325 119.734 143.426 115.151 144.948 109.964C146.47 104.777 146.338 99.2445 144.569 94.1363C142.8 89.0282 139.484 84.5983 135.08 81.463C130.677 78.3277 125.406 76.6428 120 76.6428C114.594 76.6428 109.323 78.3277 104.92 81.463C100.516 84.5983 97.1995 89.0282 95.4309 94.1363C93.6623 99.2445 93.5299 104.777 95.052 109.964C96.574 115.151 99.675 119.734 103.923 123.077C96.6437 125.993 90.2919 130.83 85.5452 137.073C80.7985 143.315 77.8348 150.729 76.97 158.523C76.9074 159.092 76.9575 159.668 77.1174 160.218C77.2774 160.768 77.544 161.28 77.9021 161.727C78.6254 162.629 79.6774 163.207 80.8267 163.333C81.9759 163.46 83.1283 163.124 84.0304 162.401C84.9324 161.678 85.5102 160.626 85.6367 159.477C86.5882 151.006 90.6273 143.182 96.9823 137.501C103.337 131.82 111.563 128.68 120.087 128.68C128.611 128.68 136.836 131.82 143.191 137.501C149.546 143.182 153.585 151.006 154.537 159.477C154.654 160.541 155.163 161.525 155.963 162.237C156.763 162.949 157.799 163.34 158.87 163.333H159.347C160.483 163.203 161.521 162.628 162.235 161.735C162.949 160.843 163.282 159.704 163.16 158.567C162.291 150.75 159.311 143.318 154.54 137.066C149.769 130.813 143.387 125.978 136.077 123.077ZM120 120C116.572 120 113.221 118.983 110.37 117.079C107.52 115.174 105.298 112.467 103.986 109.3C102.674 106.133 102.331 102.647 103 99.2851C103.669 95.9227 105.319 92.8342 107.743 90.4101C110.168 87.986 113.256 86.3352 116.618 85.6664C119.981 84.9975 123.466 85.3408 126.633 86.6527C129.8 87.9646 132.508 90.1863 134.412 93.0368C136.317 95.8872 137.333 99.2384 137.333 102.667C137.333 107.264 135.507 111.673 132.257 114.923C129.006 118.174 124.597 120 120 120Z" fill="white"/>
</svg>
