<svg width="48" height="48" viewBox="0 0 48 48" fill="none" xmlns="http://www.w3.org/2000/svg">
<rect width="48" height="48" rx="24" fill="#FFF1EC"/>
<path d="M31.4406 25C31.2206 25 30.9906 24.93 30.7706 24.88C30.3251 24.7818 29.8873 24.6515 29.4606 24.49C28.9967 24.3212 28.4867 24.33 28.0289 24.5146C27.5711 24.6992 27.1977 25.0466 26.9806 25.49L26.7606 25.94C25.7866 25.3982 24.8916 24.7252 24.1006 23.94C23.3154 23.149 22.6424 22.254 22.1006 21.28L22.5206 21C22.964 20.7829 23.3114 20.4095 23.496 19.9517C23.6806 19.4939 23.6894 18.9839 23.5206 18.52C23.3618 18.0924 23.2315 17.6548 23.1306 17.21C23.0806 16.99 23.0406 16.76 23.0106 16.53C22.8892 15.8256 22.5202 15.1877 21.9702 14.7312C21.4202 14.2747 20.7253 14.0296 20.0106 14.04H17.0106C16.5796 14.036 16.1528 14.1248 15.7593 14.3005C15.3658 14.4763 15.0147 14.7347 14.73 15.0583C14.4453 15.3819 14.2337 15.763 14.1096 16.1757C13.9854 16.5884 13.9517 17.0231 14.0106 17.45C14.5433 21.6394 16.4566 25.5319 19.4482 28.5126C22.4399 31.4934 26.3393 33.3925 30.5306 33.91H30.9106C31.648 33.9111 32.36 33.6405 32.9106 33.15C33.227 32.867 33.4797 32.5202 33.6521 32.1323C33.8244 31.7445 33.9126 31.3244 33.9106 30.9V27.9C33.8983 27.2054 33.6454 26.5366 33.1949 26.0077C32.7445 25.4788 32.1244 25.1226 31.4406 25ZM31.9406 31C31.9404 31.142 31.91 31.2823 31.8514 31.4116C31.7927 31.5409 31.7073 31.6563 31.6006 31.75C31.4889 31.8465 31.3582 31.9185 31.217 31.9616C31.0758 32.0047 30.9271 32.0177 30.7806 32C27.0355 31.5198 23.5568 29.8065 20.8933 27.1303C18.2298 24.4541 16.533 20.9673 16.0706 17.22C16.0547 17.0735 16.0686 16.9253 16.1116 16.7844C16.1546 16.6435 16.2257 16.5127 16.3206 16.4C16.4143 16.2933 16.5297 16.2078 16.659 16.1492C16.7883 16.0906 16.9286 16.0602 17.0706 16.06H20.0706C20.3031 16.0548 20.5302 16.1309 20.7127 16.2751C20.8953 16.4193 21.0218 16.6226 21.0706 16.85C21.1106 17.1233 21.1606 17.3933 21.2206 17.66C21.3361 18.1871 21.4898 18.7052 21.6806 19.21L20.2806 19.86C20.1609 19.9149 20.0532 19.993 19.9637 20.0896C19.8743 20.1863 19.8048 20.2996 19.7593 20.4232C19.7137 20.5468 19.6931 20.6781 19.6984 20.8097C19.7038 20.9413 19.7351 21.0706 19.7906 21.19C21.2298 24.2728 23.7078 26.7508 26.7906 28.19C27.0341 28.29 27.3071 28.29 27.5506 28.19C27.6753 28.1454 27.7899 28.0765 27.8878 27.9872C27.9856 27.8979 28.0648 27.7901 28.1206 27.67L28.7406 26.27C29.2576 26.4549 29.7852 26.6085 30.3206 26.73C30.5873 26.79 30.8573 26.84 31.1306 26.88C31.358 26.9288 31.5613 27.0553 31.7055 27.2379C31.8497 27.4204 31.9258 27.6475 31.9206 27.88L31.9406 31Z" fill="#FF7037"/>
</svg>
