<svg width="106" height="32" viewBox="0 0 106 32" fill="none" xmlns="http://www.w3.org/2000/svg">
<path d="M14 6C11.8783 6 9.84344 6.84285 8.34315 8.34315C6.84285 9.84344 6 11.8783 6 14C6 19.4 13.05 25.5 13.35 25.76C13.5311 25.9149 13.7616 26.0001 14 26.0001C14.2384 26.0001 14.4689 25.9149 14.65 25.76C15 25.5 22 19.4 22 14C22 11.8783 21.1571 9.84344 19.6569 8.34315C18.1566 6.84285 16.1217 6 14 6ZM14 23.65C11.87 21.65 8 17.34 8 14C8 12.4087 8.63214 10.8826 9.75736 9.75736C10.8826 8.63214 12.4087 8 14 8C15.5913 8 17.1174 8.63214 18.2426 9.75736C19.3679 10.8826 20 12.4087 20 14C20 17.34 16.13 21.66 14 23.65ZM14 10C13.2089 10 12.4355 10.2346 11.7777 10.6741C11.1199 11.1136 10.6072 11.7384 10.3045 12.4693C10.0017 13.2002 9.92252 14.0044 10.0769 14.7804C10.2312 15.5563 10.6122 16.269 11.1716 16.8284C11.731 17.3878 12.4437 17.7688 13.2196 17.9231C13.9956 18.0775 14.7998 17.9983 15.5307 17.6955C16.2616 17.3928 16.8864 16.8801 17.3259 16.2223C17.7654 15.5645 18 14.7911 18 14C18 12.9391 17.5786 11.9217 16.8284 11.1716C16.0783 10.4214 15.0609 10 14 10ZM14 16C13.6044 16 13.2178 15.8827 12.8889 15.6629C12.56 15.4432 12.3036 15.1308 12.1522 14.7654C12.0009 14.3999 11.9613 13.9978 12.0384 13.6098C12.1156 13.2219 12.3061 12.8655 12.5858 12.5858C12.8655 12.3061 13.2219 12.1156 13.6098 12.0384C13.9978 11.9613 14.3999 12.0009 14.7654 12.1522C15.1308 12.3036 15.4432 12.56 15.6629 12.8889C15.8827 13.2178 16 13.6044 16 14C16 14.5304 15.7893 15.0391 15.4142 15.4142C15.0391 15.7893 14.5304 16 14 16Z" fill="#FF7037"/>
<path d="M34.7713 22L30.3553 10.304H32.5313L35.0913 17.04C35.3473 17.744 35.5713 18.432 35.8273 19.376C36.1153 18.352 36.3553 17.632 36.5793 17.04L39.1073 10.304H41.2353L36.8833 22H34.7713ZM43.3824 12.512C42.7104 12.512 42.1824 11.984 42.1824 11.328C42.1824 10.672 42.7104 10.16 43.3824 10.16C44.0224 10.16 44.5504 10.672 44.5504 11.328C44.5504 11.984 44.0224 12.512 43.3824 12.512ZM42.4064 22V14.096H44.3584V22H42.4064ZM49.9112 22.208C47.5592 22.208 45.9112 20.496 45.9112 18.048C45.9112 15.568 47.5272 13.856 49.8472 13.856C52.2152 13.856 53.7192 15.44 53.7192 17.904V18.496L47.7672 18.512C47.9112 19.904 48.6472 20.608 49.9432 20.608C51.0152 20.608 51.7192 20.192 51.9432 19.44H53.7512C53.4152 21.168 51.9752 22.208 49.9112 22.208ZM49.8632 15.456C48.7112 15.456 48.0072 16.08 47.8152 17.264H51.7832C51.7832 16.176 51.0312 15.456 49.8632 15.456ZM56.6817 22L54.1217 14.096H56.1537L57.1937 17.488C57.3697 18.112 57.5297 18.8 57.6737 19.536C57.8177 18.768 57.9617 18.272 58.2177 17.488L59.3057 14.096H61.2897L62.3457 17.488C62.4417 17.808 62.7617 18.992 62.8577 19.52C62.9857 18.928 63.2417 17.984 63.3857 17.488L64.4417 14.096H66.5057L63.7697 22H61.9457L60.8577 18.576C60.5377 17.536 60.3617 16.784 60.2977 16.384C60.2177 16.752 60.0737 17.312 59.6737 18.608L58.5857 22H56.6817ZM74.2722 22H72.2882V10.304H74.2722L78.0482 19.616L81.8242 10.304H83.8402V22H81.8562V18.4C81.8562 16.048 81.8562 15.36 81.9682 14.528L78.9922 22H77.1042L74.1442 14.544C74.2562 15.248 74.2722 16.352 74.2722 17.808V22ZM88.4928 22.208C86.8128 22.208 85.7888 21.232 85.7888 19.744C85.7888 18.288 86.8448 17.376 88.7168 17.232L91.0848 17.056V16.88C91.0848 15.808 90.4448 15.376 89.4528 15.376C88.3008 15.376 87.6608 15.856 87.6608 16.688H85.9968C85.9968 14.976 87.4048 13.856 89.5488 13.856C91.6768 13.856 92.9888 15.008 92.9888 17.2V22H91.2768L91.1328 20.832C90.7968 21.648 89.7248 22.208 88.4928 22.208ZM89.1328 20.736C90.3328 20.736 91.1008 20.016 91.1008 18.8V18.384L89.4528 18.512C88.2368 18.624 87.7728 19.024 87.7728 19.664C87.7728 20.384 88.2528 20.736 89.1328 20.736ZM94.9064 25.664V14.096H96.7144L96.8424 15.296C97.3224 14.384 98.3624 13.856 99.5624 13.856C101.786 13.856 103.258 15.472 103.258 17.952C103.258 20.416 101.914 22.208 99.5624 22.208C98.3784 22.208 97.3544 21.744 96.8584 20.944V25.664H94.9064ZM96.8744 18.048C96.8744 19.472 97.7544 20.448 99.0984 20.448C100.474 20.448 101.29 19.456 101.29 18.048C101.29 16.64 100.474 15.632 99.0984 15.632C97.7544 15.632 96.8744 16.624 96.8744 18.048Z" fill="#FF7037"/>
</svg>
