<svg width="60" height="60" viewBox="0 0 60 60" fill="none" xmlns="http://www.w3.org/2000/svg">
<rect width="60" height="60" rx="30" fill="#FFF1EC"/>
<path d="M37.6335 24.3473C37.5276 24.2372 37.4017 24.1499 37.263 24.0903C37.1243 24.0307 36.9755 24 36.8252 24C36.6749 24 36.5261 24.0307 36.3873 24.0903C36.2486 24.1499 36.1227 24.2372 36.0168 24.3473L27.5352 33.1052L23.9718 29.4189C23.8619 29.3094 23.7321 29.2233 23.59 29.1656C23.4479 29.1078 23.2961 29.0795 23.1433 29.0822C22.9905 29.0849 22.8398 29.1187 22.6997 29.1815C22.5596 29.2443 22.4328 29.3349 22.3267 29.4482C22.2205 29.5615 22.137 29.6953 22.081 29.8419C22.025 29.9885 21.9975 30.145 22.0002 30.3025C22.0028 30.46 22.0355 30.6155 22.0964 30.76C22.1573 30.9045 22.2452 31.0352 22.3551 31.1446L26.7269 35.6527C26.8327 35.7628 26.9586 35.8501 27.0974 35.9097C27.2361 35.9693 27.3849 36 27.5352 36C27.6855 36 27.8343 35.9693 27.973 35.9097C28.1118 35.8501 28.2377 35.7628 28.3435 35.6527L37.6335 26.073C37.749 25.9631 37.8413 25.8297 37.9044 25.6812C37.9674 25.5326 38 25.3723 38 25.2101C38 25.048 37.9674 24.8876 37.9044 24.7391C37.8413 24.5906 37.749 24.4572 37.6335 24.3473Z" fill="#FF7037"/>
</svg>
