<svg width="132" height="40" viewBox="0 0 132 40" fill="none" xmlns="http://www.w3.org/2000/svg">
<path d="M4.68784 14.0697C4.68784 7.87613 9.14719 3.87097 15.9601 3.87097C21.8233 3.87097 26.4065 7.91742 26.613 13.2852H20.1304C19.8827 11.0555 18.1485 9.65162 15.6298 9.65162C12.7395 9.65162 11.0878 10.8903 11.0878 13.12C11.0878 14.8542 12.0375 15.8865 14.1433 16.5058L18.4788 17.7858C22.9795 19.1484 25.1265 21.6671 25.1265 25.6723C25.1265 31.6181 20.6259 35.5406 13.7304 35.5406C7.08268 35.5406 2.78848 31.9484 2.58203 26.1265H9.06461C9.18848 28.3974 11.0465 29.76 14.0195 29.76C16.9924 29.76 18.7678 28.48 18.7678 26.3329C18.7678 24.8052 18.0659 24.0619 16.1253 23.4839L11.6659 22.2039C7.20655 20.9239 4.68784 17.9923 4.68784 14.0697Z" fill="#FF7037"/>
<path d="M33.9504 11.0555C32.2162 11.0555 30.9775 9.77549 30.9775 8.08258C30.9775 5.93549 32.9182 3.99484 35.1065 3.99484C36.8407 3.99484 38.0794 5.27484 38.0794 6.96775C38.0794 9.07355 36.0975 11.0555 33.9504 11.0555ZM27.1375 35.0039L30.3995 14.3587H36.5517L33.2898 35.0039H27.1375Z" fill="#FF7037"/>
<path d="M48.0169 35.0039H41.6582V19.6439H37.7356V14.3587H41.6582V7.95871H48.0169V14.3587H51.9394V19.6439H48.0169V35.0039Z" fill="white"/>
<path d="M63.9443 35.0039H57.5856V19.6439H53.663V14.3587H57.5856V7.95871H63.9443V14.3587H67.8669V19.6439H63.9443V35.0039Z" fill="white"/>
<path d="M80.1023 35.5406C73.8675 35.5406 69.4082 30.9987 69.4082 24.64C69.4082 18.1987 73.7436 13.6981 79.9785 13.6981C86.4611 13.6981 90.5075 17.951 90.5075 24.6813V26.2916L75.5191 26.3742C75.8907 29.0994 77.4185 30.3794 80.2262 30.3794C82.6211 30.3794 84.314 29.5123 84.7682 28.0258H90.5901C89.8469 32.609 85.7591 35.5406 80.1023 35.5406ZM80.0198 18.8594C77.5011 18.8594 76.0972 19.9742 75.6017 22.4516H84.1901C84.1901 20.2632 82.5798 18.8594 80.0198 18.8594Z" fill="white"/>
<path d="M108.477 14.3587V20.3458H106.454C102.82 20.3458 100.632 21.9561 100.632 26.0439V35.0039H94.273V14.4H100.26L100.59 17.4555C101.458 15.4323 103.274 14.0697 106.041 14.0697C106.784 14.0697 107.61 14.1523 108.477 14.3587Z" fill="white"/>
<path d="M120.645 3.87097L122.884 7.92489L127.371 7.19331L125.677 11.5169L129.032 14.6585L124.68 15.996L124.378 20.6452L120.645 17.9894L116.912 20.6452L116.609 15.996L112.258 14.6585L115.613 11.5169L113.919 7.19331L118.405 7.92489L120.645 3.87097Z" fill="#1CCD83"/>
</svg>
