<svg width="24" height="24" viewBox="0 0 24 24" fill="none" xmlns="http://www.w3.org/2000/svg">
<path d="M15.7085 12.71C16.6889 11.9387 17.4045 10.8809 17.7558 9.68394C18.107 8.48697 18.0765 7.21027 17.6683 6.03147C17.2602 4.85267 16.4948 3.83039 15.4786 3.10686C14.4624 2.38332 13.246 1.99451 11.9985 1.99451C10.7511 1.99451 9.53465 2.38332 8.51846 3.10686C7.50228 3.83039 6.73688 4.85267 6.32874 6.03147C5.92061 7.21027 5.89004 8.48697 6.24129 9.68394C6.59254 10.8809 7.30814 11.9387 8.28853 12.71C6.60861 13.383 5.14282 14.4994 4.04742 15.9399C2.95203 17.3805 2.26809 19.0913 2.06853 20.89C2.05409 21.0213 2.06565 21.1542 2.10256 21.2811C2.13947 21.4079 2.201 21.5263 2.28364 21.6293C2.45055 21.8375 2.69332 21.9708 2.95853 22C3.22375 22.0292 3.48969 21.9518 3.69786 21.7849C3.90602 21.618 4.03936 21.3752 4.06853 21.11C4.28812 19.1552 5.22022 17.3498 6.68675 16.0388C8.15328 14.7278 10.0514 14.003 12.0185 14.003C13.9856 14.003 15.8838 14.7278 17.3503 16.0388C18.8168 17.3498 19.7489 19.1552 19.9685 21.11C19.9957 21.3557 20.113 21.5827 20.2976 21.747C20.4823 21.9114 20.7213 22.0015 20.9685 22H21.0785C21.3407 21.9698 21.5803 21.8373 21.7451 21.6313C21.9099 21.4252 21.9866 21.1624 21.9585 20.9C21.758 19.0962 21.0704 17.381 19.9694 15.9382C18.8684 14.4954 17.3954 13.3795 15.7085 12.71ZM11.9985 12C11.2074 12 10.434 11.7654 9.77625 11.3259C9.11845 10.8864 8.60576 10.2616 8.30301 9.53074C8.00026 8.79983 7.92105 7.99557 8.07539 7.21964C8.22973 6.44372 8.61069 5.73099 9.1701 5.17158C9.72951 4.61217 10.4422 4.2312 11.2182 4.07686C11.9941 3.92252 12.7984 4.00173 13.5293 4.30448C14.2602 4.60724 14.8849 5.11993 15.3244 5.77772C15.7639 6.43552 15.9985 7.20888 15.9985 8C15.9985 9.06087 15.5771 10.0783 14.827 10.8284C14.0768 11.5786 13.0594 12 11.9985 12Z"  fill="white"/>
</svg>
