<svg width="60" height="60" viewBox="0 0 60 60" fill="none" xmlns="http://www.w3.org/2000/svg">
<rect width="60" height="60" rx="30" fill="#F6F6F9"/>
<path d="M28 36C28.2652 36 28.5196 35.8946 28.7071 35.7071C28.8946 35.5196 29 35.2652 29 35V29C29 28.7348 28.8946 28.4804 28.7071 28.2929C28.5196 28.1054 28.2652 28 28 28C27.7348 28 27.4804 28.1054 27.2929 28.2929C27.1054 28.4804 27 28.7348 27 29V35C27 35.2652 27.1054 35.5196 27.2929 35.7071C27.4804 35.8946 27.7348 36 28 36ZM38 24H34V23C34 22.2044 33.6839 21.4413 33.1213 20.8787C32.5587 20.3161 31.7956 20 31 20H29C28.2044 20 27.4413 20.3161 26.8787 20.8787C26.3161 21.4413 26 22.2044 26 23V24H22C21.7348 24 21.4804 24.1054 21.2929 24.2929C21.1054 24.4804 21 24.7348 21 25C21 25.2652 21.1054 25.5196 21.2929 25.7071C21.4804 25.8946 21.7348 26 22 26H23V37C23 37.7956 23.3161 38.5587 23.8787 39.1213C24.4413 39.6839 25.2044 40 26 40H34C34.7956 40 35.5587 39.6839 36.1213 39.1213C36.6839 38.5587 37 37.7956 37 37V26H38C38.2652 26 38.5196 25.8946 38.7071 25.7071C38.8946 25.5196 39 25.2652 39 25C39 24.7348 38.8946 24.4804 38.7071 24.2929C38.5196 24.1054 38.2652 24 38 24ZM28 23C28 22.7348 28.1054 22.4804 28.2929 22.2929C28.4804 22.1054 28.7348 22 29 22H31C31.2652 22 31.5196 22.1054 31.7071 22.2929C31.8946 22.4804 32 22.7348 32 23V24H28V23ZM35 37C35 37.2652 34.8946 37.5196 34.7071 37.7071C34.5196 37.8946 34.2652 38 34 38H26C25.7348 38 25.4804 37.8946 25.2929 37.7071C25.1054 37.5196 25 37.2652 25 37V26H35V37ZM32 36C32.2652 36 32.5196 35.8946 32.7071 35.7071C32.8946 35.5196 33 35.2652 33 35V29C33 28.7348 32.8946 28.4804 32.7071 28.2929C32.5196 28.1054 32.2652 28 32 28C31.7348 28 31.4804 28.1054 31.2929 28.2929C31.1054 28.4804 31 28.7348 31 29V35C31 35.2652 31.1054 35.5196 31.2929 35.7071C31.4804 35.8946 31.7348 36 32 36Z" fill="#AEB1C4"/>
</svg>
