<svg width="104" height="104" viewBox="0 0 104 104" fill="none" xmlns="http://www.w3.org/2000/svg">
<path d="M68.0762 55.0767C72.3245 51.7342 75.4255 47.1507 76.9475 41.9638C78.4696 36.7768 78.3372 31.2445 76.5686 26.1364C74.8 21.0282 71.4833 16.5984 67.0798 13.463C62.6763 10.3277 57.4051 8.64285 51.9995 8.64285C46.5939 8.64285 41.3227 10.3277 36.9192 13.463C32.5157 16.5984 29.199 21.0282 27.4304 26.1364C25.6618 31.2445 25.5294 36.7768 27.0515 41.9638C28.5735 47.1507 31.6745 51.7342 35.9228 55.0767C28.6432 57.9932 22.2914 62.8305 17.5447 69.073C12.798 75.3154 9.83427 82.729 8.9695 90.5233C8.9069 91.0924 8.957 91.6682 9.11694 92.2179C9.27688 92.7676 9.54352 93.2804 9.90165 93.7271C10.6249 94.6291 11.6769 95.2069 12.8262 95.3333C13.9754 95.4598 15.1279 95.1245 16.0299 94.4012C16.932 93.6779 17.5097 92.6259 17.6362 91.4767C18.5877 83.0058 22.6268 75.1825 28.9818 69.5014C35.3368 63.8204 43.5621 60.6798 52.0862 60.6798C60.6103 60.6798 68.8356 63.8204 75.1906 69.5014C81.5455 75.1825 85.5846 83.0058 86.5362 91.4767C86.654 92.5415 87.162 93.5248 87.9623 94.2371C88.7625 94.9493 89.7982 95.3398 90.8695 95.3333H91.3462C92.4821 95.2026 93.5203 94.6283 94.2346 93.7354C94.9489 92.8426 95.2813 91.7036 95.1595 90.5667C94.2906 82.7502 91.311 75.3176 86.5398 69.0656C81.7687 62.8135 75.3861 57.9777 68.0762 55.0767ZM51.9995 52C48.5713 52 45.2201 50.9834 42.3696 49.0788C39.5192 47.1742 37.2975 44.4671 35.9856 41.2999C34.6737 38.1326 34.3304 34.6474 34.9992 31.2851C35.668 27.9228 37.3189 24.8343 39.743 22.4101C42.1671 19.986 45.2556 18.3352 48.6179 17.6664C51.9803 16.9976 55.4654 17.3408 58.6327 18.6528C61.7999 19.9647 64.507 22.1863 66.4116 25.0368C68.3162 27.8872 69.3328 31.2385 69.3328 34.6667C69.3328 39.2638 67.5066 43.6726 64.256 46.9232C61.0054 50.1738 56.5966 52 51.9995 52Z" fill="white"/>
</svg>
