<svg width="24" height="25" viewBox="0 0 24 25" fill="none" xmlns="http://www.w3.org/2000/svg">
<path d="M16.2481 12.878C15.3157 11.389 13.7276 10.5 12 10.5C10.2725 10.5 8.68429 11.389 7.75201 12.878L5.50519 16.4657C5.1324 17.0611 4.9604 17.7486 5.00767 18.454C5.05494 19.1596 5.31721 19.8166 5.76604 20.3543C6.21518 20.8919 6.80867 21.2592 7.4823 21.4168C8.15594 21.5743 8.84649 21.5071 9.47918 21.2225L9.52044 21.2037C11.1126 20.5012 12.9324 20.5075 14.5206 21.2225C14.9302 21.4068 15.3642 21.5 15.8021 21.5C16.0402 21.5 16.2797 21.4723 16.517 21.417C17.1907 21.2595 17.7841 20.8922 18.2334 20.3546C18.6824 19.8171 18.9449 19.1599 18.9923 18.4544C19.0397 17.7486 18.8677 17.0611 18.4949 16.4656L16.2481 12.878ZM17.3103 19.5465C16.7388 20.2303 15.8143 20.4465 15.0096 20.0844C14.0531 19.6538 13.0265 19.4386 11.9995 19.4386C10.9735 19.4386 9.94698 19.6536 8.99114 20.0837L8.96395 20.096C8.16542 20.4417 7.25449 20.2227 6.6893 19.5465C6.11843 18.8625 6.05345 17.8941 6.52773 17.1366L8.77471 13.5489C9.48266 12.4184 10.6883 11.7434 12 11.7434C13.3117 11.7434 14.5175 12.4184 15.2256 13.5489L17.4722 17.1365C17.9467 17.8943 17.8815 18.8628 17.3103 19.5465Z" fill="#AEB1C4"/>
<path d="M5.49763 13.3405C6.12624 13.0765 6.60379 12.5227 6.84241 11.7809C7.06929 11.0751 7.05071 10.2782 6.78978 9.53689C6.52871 8.7961 6.05383 8.19137 5.45273 7.83389C4.82101 7.45853 4.12713 7.39741 3.49957 7.6619C2.23701 8.19267 1.65761 9.89859 2.20816 11.4655C2.64795 12.7127 3.67367 13.5 4.71069 13.5C4.97548 13.5 5.24102 13.4486 5.49763 13.3405ZM3.27417 11.0169C2.94976 10.0935 3.23478 9.11131 3.90992 8.82747C4.03183 8.7761 4.16073 8.75058 4.29231 8.75058C4.4954 8.75058 4.70519 8.81122 4.90709 8.93135C5.27016 9.14707 5.56023 9.52161 5.72377 9.98573C5.88717 10.4502 5.90174 10.9405 5.76466 11.3665C5.63902 11.757 5.39861 12.0441 5.08788 12.1746C4.41363 12.4588 3.59963 11.9394 3.27417 11.0169Z" fill="#AEB1C4"/>
<path d="M9.99984 9.5C11.6541 9.5 13 7.93009 13 6.0004C13 4.07023 11.6541 2.5 9.99984 2.5C8.34573 2.5 7 4.07023 7 6.0004C7 7.93009 8.34573 9.5 9.99984 9.5ZM9.99984 3.72578C10.9939 3.72578 11.8028 4.74622 11.8028 6.0004C11.8028 7.2541 10.9939 8.27422 9.99984 8.27422C9.00582 8.27422 8.19723 7.2541 8.19723 6.0004C8.19723 4.74622 9.00582 3.72578 9.99984 3.72578Z" fill="#AEB1C4"/>
<path d="M15.9387 10.3791C16.2117 10.4609 16.4904 10.5 16.7677 10.5C18.062 10.5 19.3233 9.64965 19.8046 8.34281C20.0818 7.59054 20.0635 6.79512 19.7533 6.10322C19.4286 5.37902 18.827 4.85327 18.059 4.62268C17.291 4.3924 16.46 4.48838 15.7196 4.89311C15.0123 5.27988 14.4703 5.90704 14.1936 6.65931C13.6094 8.24623 14.3922 9.91494 15.9387 10.3791ZM15.4125 7.02495C15.5932 6.53375 15.9386 6.12902 16.3851 5.88486C16.7982 5.65895 17.2489 5.60146 17.6539 5.72294C18.0588 5.84457 18.3815 6.134 18.5627 6.53813C18.7584 6.97485 18.7668 7.48581 18.5857 7.97701C18.2248 8.95729 17.2191 9.5413 16.344 9.27887C15.4695 9.0163 15.0515 8.00523 15.4125 7.02495Z" fill="#AEB1C4"/>
<path d="M22.1082 10.9868C21.0511 10.0834 19.4697 10.4745 18.5833 11.8596C17.6978 13.2454 17.8362 15.1084 18.8917 16.0124C19.2767 16.3423 19.7315 16.5 20.197 16.5C21.0084 16.5 21.8525 16.0209 22.4166 15.1399C23.3022 13.7542 23.1639 11.8912 22.1082 10.9868ZM21.525 14.3764C21.0016 15.1937 20.1166 15.4648 19.5519 14.9809C18.9876 14.4977 18.9532 13.4396 19.4752 12.6228C19.8222 12.0806 20.329 11.7789 20.7961 11.7789C21.0324 11.7789 21.2585 11.8561 21.4485 12.0186C22.0123 12.5024 22.0466 13.5601 21.525 14.3764Z" fill="#AEB1C4"/>
</svg>
