<svg width="20" height="20" viewBox="0 0 20 20" fill="none" xmlns="http://www.w3.org/2000/svg">
<path d="M10.0013 11.6667C9.79528 11.6667 9.59389 11.7278 9.42259 11.8423C9.25129 11.9568 9.11777 12.1194 9.03893 12.3098C8.96009 12.5001 8.93946 12.7096 8.97965 12.9116C9.01985 13.1137 9.11906 13.2993 9.26474 13.445C9.41042 13.5907 9.59602 13.6899 9.79809 13.7301C10.0001 13.7703 10.2096 13.7496 10.3999 13.6708C10.5903 13.5919 10.753 13.4584 10.8674 13.2871C10.9819 13.1158 11.043 12.9144 11.043 12.7084C11.043 12.4321 10.9332 12.1672 10.7379 11.9718C10.5425 11.7765 10.2776 11.6667 10.0013 11.6667ZM10.0013 10.4167C10.2223 10.4167 10.4343 10.329 10.5906 10.1727C10.7468 10.0164 10.8346 9.80443 10.8346 9.58342V7.08342C10.8346 6.8624 10.7468 6.65044 10.5906 6.49416C10.4343 6.33788 10.2223 6.25008 10.0013 6.25008C9.78029 6.25008 9.56833 6.33788 9.41205 6.49416C9.25577 6.65044 9.16797 6.8624 9.16797 7.08342V9.58342C9.16797 9.80443 9.25577 10.0164 9.41205 10.1727C9.56833 10.329 9.78029 10.4167 10.0013 10.4167ZM10.0013 1.66675C8.35313 1.66675 6.74196 2.15549 5.37155 3.07117C4.00114 3.98685 2.93304 5.28834 2.30231 6.81105C1.67158 8.33377 1.50655 10.0093 1.8281 11.6258C2.14964 13.2423 2.94331 14.7272 4.10875 15.8926C5.27419 17.0581 6.75905 17.8517 8.37555 18.1733C9.99206 18.4948 11.6676 18.3298 13.1903 17.6991C14.7131 17.0683 16.0145 16.0002 16.9302 14.6298C17.8459 13.2594 18.3346 11.6483 18.3346 10.0001C18.3322 7.7907 17.4534 5.67251 15.8911 4.11024C14.3289 2.54797 12.2107 1.66921 10.0013 1.66675ZM10.0013 16.6667C8.68276 16.6667 7.39383 16.2758 6.2975 15.5432C5.20118 14.8107 4.34669 13.7695 3.84211 12.5513C3.33752 11.3331 3.2055 9.99269 3.46274 8.69948C3.71997 7.40627 4.35491 6.21839 5.28726 5.28604C6.21961 4.35369 7.4075 3.71875 8.7007 3.46151C9.99391 3.20428 11.3344 3.3363 12.5525 3.84088C13.7707 4.34547 14.8119 5.19995 15.5444 6.29628C16.277 7.39261 16.668 8.68154 16.668 10.0001C16.6659 11.7676 15.9629 13.4621 14.7131 14.7119C13.4633 15.9617 11.7688 16.6647 10.0013 16.6667Z" fill="#EA1010"/>
</svg>
