<?xml version="1.0" encoding="UTF-8"?>
<svg version="1.1" viewBox="0 0 1024 1024" width="1280" height="1280" xmlns="http://www.w3.org/2000/svg">
<path transform="translate(474)" d="m0 0h76l49 7 31 6 30 8 35 12 24 10 25 12 23 12 21 13 12 8 17 12 14 11 13 11 11 9 11 11 2 1v2l4 2 4 4v2h2v2h2l7 8 13 14 9 11 12 15 12 17 10 15 11 18 9 16 9 17 11 24 11 28 10 31 6 22 7 36 5 34 2 16v67l-6 47-6 32-6 25-9 29-10 27-11 25-8 16-11 21-12 20-15 22-14 19-11 13-9 11-16 17-21 21-8 7-14 12-14 11-15 11-24 16-24 14-27 14-29 13-30 11-30 9-36 8-44 7-17 2h-69l-30-4-32-5-36-8-30-9-25-9-30-13-16-8-21-11-20-12-12-8-17-12-18-14-13-11-12-11-8-7-23-23-7-8-9-10-11-14-15-20-14-21-12-20-10-18-15-31-14-36-10-32-7-29-4-21-5-33-2-18v-76l7-48 7-34 10-35 9-26 10-24 14-29 13-24 14-22 11-16 9-12 10-13 9-10 9-11 7-7 1-2h2l2-4 12-12h2l1-3 8-7 11-10 11-9 15-12 17-12 15-10 18-11 22-12 16-8 24-11 27-10 28-9 28-7 36-7z" fill="#09B50D"/>
<path transform="translate(788,286)" d="m0 0h18l15 3 14 7 9 7 7 7 7 11 5 12 3 16-1 15-3 12-7 14-9 10-6 7-8 7-9 9-8 7-8 8-8 7-17 16-10 9-8 8-8 7-9 9-8 7-17 16-12 11-7 7-8 7-9 9-8 7-8 8-8 7-33 31-13 12-17 16-13 12-34 32-39 36-12 11-26 24-8 8-8 7-8 8-8 7-17 16-12 11-9 9-4 1-14-15-7-8-12-13-12-12-7-8-16-17-7-8-7-7-7-8-13-13-7-8-15-16-9-10-15-16-10-10-7-8-7-7-7-8-24-26-13-13-7-8-7-7-7-8-8-11-4-8-3-9-2-11v-13l3-15 5-12 8-11 7-7 10-7 11-5 6-2 7-1h22l13 3 15 8 12 11 13 13 7 8 8 8 7 8 7 7 7 8 14 15 32 34 24 26 16 17 7 7 4-1 11-11 8-7 17-16 12-11 16-15 13-12 32-30 30-28 17-16 16-15 15-14 12-11 7-7 8-7 7-7 11-9 8-8 8-7 9-9 8-7 48-45 8-8 8-7 13-12 14-9 11-4z" fill="#FEFEFE"/>
</svg>
