<svg width="24" height="24" viewBox="0 0 24 24" fill="none" xmlns="http://www.w3.org/2000/svg">
<path d="M21.6043 12.23C21.6043 11.5503 21.5492 10.8668 21.4316 10.1981H11.9996V14.0488H17.4009C17.1768 15.2907 16.4566 16.3893 15.4021 17.0875V19.586H18.6244C20.5167 17.8444 21.6043 15.2723 21.6043 12.23Z" fill="#4285F4"/>
<path d="M11.9997 22C14.6966 22 16.971 21.1145 18.6281 19.586L15.4057 17.0874C14.5092 17.6974 13.3518 18.0428 12.0033 18.0428C9.39456 18.0428 7.18263 16.2828 6.38897 13.9165H3.06372V16.4922C4.76125 19.8689 8.21878 22 11.9997 22Z" fill="#34A853"/>
<path d="M6.38529 13.9164C5.96642 12.6745 5.96642 11.3297 6.38529 10.0878V7.51208H3.06371C1.64543 10.3376 1.64543 13.6666 3.06371 16.4921L6.38529 13.9164Z" fill="#FBBC04"/>
<path d="M11.9997 5.95791C13.4253 5.93586 14.8032 6.47231 15.8356 7.45703L18.6906 4.60209C16.8828 2.90456 14.4835 1.97128 11.9997 2.00067C8.21878 2.00067 4.76125 4.13178 3.06372 7.51214L6.3853 10.0878C7.17528 7.71791 9.39089 5.95791 11.9997 5.95791Z" fill="#EA4335"/>
</svg>
