<svg width="49" height="48" viewBox="0 0 49 48" fill="none" xmlns="http://www.w3.org/2000/svg">
<rect x="0.612793" width="48" height="48" rx="24"/>
<path d="M27.857 29.082C29.7202 28.8614 31.5509 28.4217 33.311 27.772C31.8204 26.1208 30.9967 23.9745 31 21.75V21.05V21C31 19.4087 30.3678 17.8826 29.2426 16.7574C28.1174 15.6321 26.5913 15 25 15C23.4087 15 21.8826 15.6321 20.7573 16.7574C19.6321 17.8826 19 19.4087 19 21V21.75C19.003 23.9746 18.179 26.121 16.688 27.772C18.421 28.412 20.248 28.857 22.143 29.082M27.857 29.082C25.959 29.3071 24.041 29.3071 22.143 29.082M27.857 29.082C28.0011 29.5319 28.0369 30.0094 27.9616 30.4757C27.8862 30.942 27.7018 31.384 27.4234 31.7656C27.1449 32.1472 26.7803 32.4576 26.3592 32.6716C25.9381 32.8856 25.4724 32.9972 25 32.9972C24.5276 32.9972 24.0619 32.8856 23.6408 32.6716C23.2197 32.4576 22.8551 32.1472 22.5766 31.7656C22.2982 31.384 22.1138 30.942 22.0384 30.4757C21.9631 30.0094 21.9989 29.5319 22.143 29.082" stroke="#AEB1C4" stroke-width="1.8" stroke-linecap="round" stroke-linejoin="round"/>
</svg>
