<svg width="18" height="10" viewBox="0 0 18 10" fill="none" xmlns="http://www.w3.org/2000/svg">
<path d="M2.0917 8.575C2.01244 8.49913 1.91899 8.43966 1.8167 8.4C1.61381 8.31665 1.38625 8.31665 1.18336 8.4C1.08107 8.43966 0.987617 8.49913 0.908364 8.575C0.832497 8.65425 0.773026 8.74771 0.733364 8.85C0.669548 9.00176 0.652113 9.16902 0.683258 9.33068C0.714403 9.49234 0.792733 9.64115 0.908364 9.75833C0.989365 9.83194 1.08238 9.89113 1.18336 9.93333C1.28311 9.97742 1.39097 10.0002 1.50003 10.0002C1.60909 10.0002 1.71695 9.97742 1.8167 9.93333C1.91769 9.89113 2.0107 9.83194 2.0917 9.75833C2.20733 9.64115 2.28566 9.49234 2.3168 9.33068C2.34795 9.16902 2.33051 9.00176 2.2667 8.85C2.22704 8.74771 2.16756 8.65425 2.0917 8.575ZM4.83336 1.66667H16.5C16.721 1.66667 16.933 1.57887 17.0893 1.42259C17.2456 1.26631 17.3334 1.05435 17.3334 0.833333C17.3334 0.61232 17.2456 0.400358 17.0893 0.244078C16.933 0.0877975 16.721 0 16.5 0H4.83336C4.61235 0 4.40039 0.0877975 4.24411 0.244078C4.08783 0.400358 4.00003 0.61232 4.00003 0.833333C4.00003 1.05435 4.08783 1.26631 4.24411 1.42259C4.40039 1.57887 4.61235 1.66667 4.83336 1.66667ZM2.0917 4.40833C1.97451 4.2927 1.8257 4.21437 1.66404 4.18323C1.50238 4.15208 1.33512 4.16952 1.18336 4.23333C1.08238 4.27553 0.989365 4.33472 0.908364 4.40833C0.832497 4.48759 0.773026 4.58104 0.733364 4.68333C0.689277 4.78308 0.666504 4.89094 0.666504 5C0.666504 5.10906 0.689277 5.21692 0.733364 5.31667C0.775566 5.41765 0.834755 5.51067 0.908364 5.59167C0.989365 5.66528 1.08238 5.72446 1.18336 5.76667C1.28311 5.81075 1.39097 5.83353 1.50003 5.83353C1.60909 5.83353 1.71695 5.81075 1.8167 5.76667C1.91769 5.72446 2.0107 5.66528 2.0917 5.59167C2.16531 5.51067 2.2245 5.41765 2.2667 5.31667C2.31079 5.21692 2.33356 5.10906 2.33356 5C2.33356 4.89094 2.31079 4.78308 2.2667 4.68333C2.22704 4.58104 2.16756 4.48759 2.0917 4.40833ZM16.5 4.16667H4.83336C4.61235 4.16667 4.40039 4.25446 4.24411 4.41074C4.08783 4.56702 4.00003 4.77899 4.00003 5C4.00003 5.22101 4.08783 5.43297 4.24411 5.58926C4.40039 5.74554 4.61235 5.83333 4.83336 5.83333H16.5C16.721 5.83333 16.933 5.74554 17.0893 5.58926C17.2456 5.43297 17.3334 5.22101 17.3334 5C17.3334 4.77899 17.2456 4.56702 17.0893 4.41074C16.933 4.25446 16.721 4.16667 16.5 4.16667ZM2.0917 0.241667C2.01244 0.165799 1.91899 0.106329 1.8167 0.0666666C1.66494 0.00285041 1.49768 -0.0145849 1.33602 0.0165602C1.17436 0.0477053 1.02555 0.126035 0.908364 0.241667C0.834755 0.322667 0.775566 0.415679 0.733364 0.516667C0.689277 0.616417 0.666504 0.724274 0.666504 0.833333C0.666504 0.942392 0.689277 1.05025 0.733364 1.15C0.775566 1.25099 0.834755 1.344 0.908364 1.425C0.989365 1.49861 1.08238 1.5578 1.18336 1.6C1.33512 1.66382 1.50238 1.68125 1.66404 1.65011C1.8257 1.61896 1.97451 1.54063 2.0917 1.425C2.16531 1.344 2.2245 1.25099 2.2667 1.15C2.31079 1.05025 2.33356 0.942392 2.33356 0.833333C2.33356 0.724274 2.31079 0.616417 2.2667 0.516667C2.2245 0.415679 2.16531 0.322667 2.0917 0.241667ZM16.5 8.33333H4.83336C4.61235 8.33333 4.40039 8.42113 4.24411 8.57741C4.08783 8.73369 4.00003 8.94565 4.00003 9.16667C4.00003 9.38768 4.08783 9.59964 4.24411 9.75592C4.40039 9.9122 4.61235 10 4.83336 10H16.5C16.721 10 16.933 9.9122 17.0893 9.75592C17.2456 9.59964 17.3334 9.38768 17.3334 9.16667C17.3334 8.94565 17.2456 8.73369 17.0893 8.57741C16.933 8.42113 16.721 8.33333 16.5 8.33333Z" fill="#3A3B46"/>
</svg>
