<svg width="14" height="18" viewBox="0 0 14 18" fill="none" xmlns="http://www.w3.org/2000/svg">
<path d="M0.332031 9C0.332031 9.22101 0.419829 9.43298 0.576109 9.58926C0.732389 9.74554 0.944351 9.83333 1.16536 9.83333H7.49036L5.5737 11.7417C5.49559 11.8191 5.4336 11.9113 5.39129 12.0129C5.34898 12.1144 5.3272 12.2233 5.3272 12.3333C5.3272 12.4433 5.34898 12.5523 5.39129 12.6538C5.4336 12.7554 5.49559 12.8475 5.5737 12.925C5.65117 13.0031 5.74333 13.0651 5.84488 13.1074C5.94643 13.1497 6.05535 13.1715 6.16536 13.1715C6.27537 13.1715 6.3843 13.1497 6.48585 13.1074C6.58739 13.0651 6.67956 13.0031 6.75703 12.925L10.0904 9.59167C10.1662 9.51241 10.2257 9.41896 10.2654 9.31667C10.3487 9.11378 10.3487 8.88622 10.2654 8.68334C10.2257 8.58104 10.1662 8.48759 10.0904 8.40833L6.75703 5.075C6.67933 4.9973 6.58709 4.93567 6.48557 4.89362C6.38405 4.85157 6.27525 4.82993 6.16536 4.82993C6.05548 4.82993 5.94667 4.85157 5.84516 4.89362C5.74364 4.93567 5.6514 4.9973 5.5737 5.075C5.496 5.1527 5.43436 5.24494 5.39231 5.34646C5.35026 5.44798 5.32862 5.55679 5.32862 5.66667C5.32862 5.77655 5.35026 5.88536 5.39231 5.98688C5.43436 6.08839 5.496 6.18064 5.5737 6.25834L7.49036 8.16667H1.16536C0.944351 8.16667 0.732389 8.25447 0.576109 8.41075C0.419829 8.56703 0.332031 8.77899 0.332031 9ZM11.1654 0.666668H2.83203C2.16899 0.666668 1.53311 0.93006 1.06426 1.3989C0.595423 1.86774 0.332031 2.50363 0.332031 3.16667V5.66667C0.332031 5.88768 0.419829 6.09964 0.576109 6.25592C0.732389 6.4122 0.944351 6.5 1.16536 6.5C1.38638 6.5 1.59834 6.4122 1.75462 6.25592C1.9109 6.09964 1.9987 5.88768 1.9987 5.66667V3.16667C1.9987 2.94565 2.0865 2.73369 2.24278 2.57741C2.39906 2.42113 2.61102 2.33333 2.83203 2.33333H11.1654C11.3864 2.33333 11.5983 2.42113 11.7546 2.57741C11.9109 2.73369 11.9987 2.94565 11.9987 3.16667V14.8333C11.9987 15.0543 11.9109 15.2663 11.7546 15.4226C11.5983 15.5789 11.3864 15.6667 11.1654 15.6667H2.83203C2.61102 15.6667 2.39906 15.5789 2.24278 15.4226C2.0865 15.2663 1.9987 15.0543 1.9987 14.8333V12.3333C1.9987 12.1123 1.9109 11.9004 1.75462 11.7441C1.59834 11.5878 1.38638 11.5 1.16536 11.5C0.944351 11.5 0.732389 11.5878 0.576109 11.7441C0.419829 11.9004 0.332031 12.1123 0.332031 12.3333V14.8333C0.332031 15.4964 0.595423 16.1323 1.06426 16.6011C1.53311 17.0699 2.16899 17.3333 2.83203 17.3333H11.1654C11.8284 17.3333 12.4643 17.0699 12.9331 16.6011C13.402 16.1323 13.6654 15.4964 13.6654 14.8333V3.16667C13.6654 2.50363 13.402 1.86774 12.9331 1.3989C12.4643 0.93006 11.8284 0.666668 11.1654 0.666668Z" fill="#3A3B46"/>
</svg>

