<svg width="49" height="48" viewBox="0 0 49 48" fill="none" xmlns="http://www.w3.org/2000/svg">
<rect x="0.612793" width="48" height="48" rx="24"/>
<path d="M32 20H31V17C31 16.2044 30.6839 15.4413 30.1213 14.8787C29.5587 14.3161 28.7956 14 28 14H18C17.2044 14 16.4413 14.3161 15.8787 14.8787C15.3161 15.4413 15 16.2044 15 17V29C15.001 29.1974 15.0604 29.3901 15.1707 29.5539C15.2811 29.7176 15.4374 29.845 15.62 29.92C15.7387 29.976 15.8688 30.0034 16 30C16.1316 30.0008 16.2621 29.9755 16.3839 29.9258C16.5057 29.876 16.6166 29.8027 16.71 29.71L19.52 26.89H21V28.33C21 29.1256 21.3161 29.8887 21.8787 30.4513C22.4413 31.0139 23.2044 31.33 24 31.33H30.92L33.29 33.71C33.3834 33.8027 33.4943 33.876 33.6161 33.9258C33.7379 33.9755 33.8684 34.0008 34 34C34.1312 34.0034 34.2613 33.976 34.38 33.92C34.5626 33.845 34.7189 33.7176 34.8293 33.5539C34.9396 33.3901 34.999 33.1974 35 33V23C35 22.2044 34.6839 21.4413 34.1213 20.8787C33.5587 20.3161 32.7956 20 32 20ZM21 23V24.89H19.11C18.9784 24.8892 18.8479 24.9145 18.7261 24.9642C18.6043 25.014 18.4934 25.0873 18.4 25.18L17 26.59V17C17 16.7348 17.1054 16.4804 17.2929 16.2929C17.4804 16.1054 17.7348 16 18 16H28C28.2652 16 28.5196 16.1054 28.7071 16.2929C28.8946 16.4804 29 16.7348 29 17V20H24C23.2044 20 22.4413 20.3161 21.8787 20.8787C21.3161 21.4413 21 22.2044 21 23ZM33 30.59L32 29.59C31.9074 29.4955 31.7969 29.4203 31.6751 29.3688C31.5532 29.3173 31.4223 29.2906 31.29 29.29H24C23.7348 29.29 23.4804 29.1846 23.2929 28.9971C23.1054 28.8096 23 28.5552 23 28.29V23C23 22.7348 23.1054 22.4804 23.2929 22.2929C23.4804 22.1054 23.7348 22 24 22H32C32.2652 22 32.5196 22.1054 32.7071 22.2929C32.8946 22.4804 33 22.7348 33 23V30.59Z" fill="#AEB1C4"/>
</svg>
