<svg width="20" height="20" viewBox="0 0 20 20" fill="none" xmlns="http://www.w3.org/2000/svg">
<path d="M13.5399 10.3151C12.7629 9.07429 11.4395 8.33341 9.99982 8.33341C8.56025 8.33341 7.23674 9.07429 6.45984 10.3151L4.58749 13.3049C4.27684 13.801 4.1335 14.374 4.17289 14.9618C4.21228 15.5497 4.43085 16.0972 4.80487 16.5453C5.17916 16.9933 5.67373 17.2994 6.23509 17.4308C6.79645 17.562 7.37191 17.506 7.89915 17.2688L7.93354 17.2532C9.26034 16.6678 10.7768 16.673 12.1004 17.2688C12.4417 17.4224 12.8033 17.5001 13.1683 17.5001C13.3667 17.5001 13.5663 17.477 13.764 17.4309C14.3254 17.2997 14.82 16.9936 15.1944 16.5456C15.5685 16.0976 15.7872 15.55 15.8267 14.962C15.8663 14.374 15.7229 13.801 15.4123 13.3047L13.5399 10.3151ZM14.4251 15.8722C13.9489 16.442 13.1784 16.6222 12.5078 16.3204C11.7108 15.9616 10.8552 15.7822 9.99942 15.7822C9.1444 15.7822 8.28898 15.9614 7.49246 16.3199L7.4698 16.3301C6.80436 16.6182 6.04524 16.4357 5.57426 15.8722C5.09853 15.3021 5.04438 14.4952 5.43962 13.8639L7.3121 10.8742C7.90205 9.93208 8.90673 9.36961 9.99982 9.36961C11.0929 9.36961 12.0977 9.93208 12.6878 10.8742L14.56 13.8638C14.9554 14.4953 14.9011 15.3024 14.4251 15.8722Z" fill="#3A3B46"/>
<path d="M4.5812 10.7005C5.10504 10.4805 5.50299 10.019 5.70185 9.40083C5.89091 8.81263 5.87543 8.14856 5.65799 7.53083C5.44042 6.9135 5.0447 6.40955 4.54378 6.11166C4.01734 5.79886 3.43911 5.74792 2.91614 5.96833C1.86401 6.41064 1.38118 7.83224 1.83997 9.13802C2.20646 10.1773 3.06123 10.8334 3.92541 10.8334C4.14607 10.8334 4.36735 10.7906 4.5812 10.7005ZM2.72832 8.76413C2.45797 7.99467 2.69548 7.17617 3.2581 6.93964C3.3597 6.89683 3.46711 6.87556 3.57676 6.87556C3.74601 6.87556 3.92083 6.92609 4.08908 7.02621C4.39164 7.20597 4.63336 7.51809 4.76965 7.90485C4.90581 8.29189 4.91795 8.70046 4.80372 9.05552C4.69902 9.38092 4.49868 9.62016 4.23974 9.72894C3.67786 9.96574 2.99953 9.53292 2.72832 8.76413Z" fill="#3A3B46"/>
<path d="M8.33304 7.50008C9.7116 7.50008 10.8332 6.19182 10.8332 4.58375C10.8332 2.97528 9.7116 1.66675 8.33304 1.66675C6.95461 1.66675 5.83317 2.97528 5.83317 4.58375C5.83317 6.19182 6.95461 7.50008 8.33304 7.50008ZM8.33304 2.68823C9.1614 2.68823 9.83548 3.5386 9.83548 4.58375C9.83548 5.6285 9.1614 6.4786 8.33304 6.4786C7.50468 6.4786 6.83086 5.6285 6.83086 4.58375C6.83086 3.5386 7.50468 2.68823 8.33304 2.68823Z" fill="#3A3B46"/>
<path d="M13.2821 8.23269C13.5096 8.30084 13.7418 8.33341 13.973 8.33341C15.0515 8.33341 16.1026 7.62479 16.5037 6.53575C16.7346 5.90887 16.7195 5.24601 16.4609 4.66943C16.1904 4.06593 15.689 3.62781 15.049 3.43565C14.409 3.24375 13.7165 3.32373 13.0995 3.661C12.5101 3.98331 12.0584 4.50595 11.8279 5.13284C11.341 6.45527 11.9934 7.84586 13.2821 8.23269ZM12.8436 5.43754C12.9942 5.02821 13.282 4.69093 13.6541 4.48746C13.9983 4.29921 14.3739 4.2513 14.7114 4.35253C15.0489 4.45389 15.3177 4.69508 15.4687 5.03185C15.6319 5.39579 15.6388 5.82159 15.488 6.23092C15.1872 7.04783 14.3491 7.5345 13.6198 7.31581C12.8911 7.097 12.5428 6.25444 12.8436 5.43754Z" fill="#3A3B46"/>
<path d="M18.4234 8.73908C17.5424 7.98628 16.2246 8.31215 15.4859 9.4664C14.748 10.6212 14.8634 12.1737 15.7429 12.9271C16.0637 13.202 16.4428 13.3334 16.8307 13.3334C17.5068 13.3334 18.2103 12.9342 18.6804 12.2C19.4183 11.0452 19.3031 9.49271 18.4234 8.73908ZM17.9374 11.5637C17.5012 12.2449 16.7637 12.4708 16.2931 12.0675C15.8228 11.6648 15.7942 10.7831 16.2292 10.1024C16.5183 9.65057 16.9407 9.39917 17.3299 9.39917C17.5268 9.39917 17.7152 9.46348 17.8736 9.59892C18.3435 10.002 18.372 10.8835 17.9374 11.5637Z" fill="#3A3B46"/>
<path fill-rule="evenodd" clip-rule="evenodd" d="M4.58776 13.3049L6.46011 10.3151C7.23701 9.07429 8.56052 8.33341 10.0001 8.33341C11.4398 8.33341 12.7632 9.07429 13.5402 10.3151L15.4125 13.3047C15.7232 13.801 15.8665 14.374 15.827 14.962C15.7875 15.55 15.5688 16.0976 15.1946 16.5456C14.8202 16.9936 14.3257 17.2997 13.7643 17.4309C13.5665 17.477 13.3669 17.5001 13.1685 17.5001C12.8036 17.5001 12.442 17.4224 12.1006 17.2688C10.7771 16.673 9.26061 16.6678 7.93381 17.2532L7.89942 17.2688C7.37218 17.506 6.79672 17.562 6.23536 17.4308C5.67399 17.2994 5.17943 16.9933 4.80514 16.5453C4.43112 16.0972 4.21255 15.5497 4.17316 14.9618C4.13377 14.374 4.27711 13.801 4.58776 13.3049ZM8.03593 17.4814C8.03553 17.4815 8.03513 17.4817 8.03472 17.4819L8.00199 17.4968C7.42487 17.7564 6.79338 17.8179 6.17846 17.6742C5.56362 17.5303 5.02188 17.1947 4.61329 16.7056C4.20509 16.2166 3.96661 15.6186 3.92372 14.9785C3.88084 14.3385 4.03709 13.7132 4.37587 13.1722L6.24822 10.1824C7.06988 8.87012 8.47263 8.08341 10.0001 8.08341C11.5277 8.08341 12.9303 8.87013 13.7521 10.1824L14.8601 11.9516C14.6264 11.1192 14.7668 10.1278 15.2755 9.33178C16.0689 8.09217 17.5545 7.66753 18.586 8.54902C19.5838 9.40375 19.6784 11.103 18.8913 12.3347C18.3837 13.1273 17.607 13.5834 16.831 13.5834C16.3925 13.5834 15.9632 13.4368 15.6005 13.1338L15.6244 13.172C15.9632 13.7132 16.1195 14.3386 16.0764 14.9788C16.0334 15.6189 15.7949 16.2169 15.3865 16.7059C14.9778 17.1949 14.4361 17.5306 13.8212 17.6743C13.6051 17.7247 13.3864 17.7501 13.1685 17.7501C12.7678 17.7501 12.3712 17.6647 11.998 17.4968C10.7396 16.9303 9.29758 16.9251 8.03593 17.4814ZM15.7432 12.9271C16.064 13.202 16.443 13.3334 16.831 13.3334C17.5071 13.3334 18.2105 12.9342 18.6806 12.2C19.4186 11.0452 19.3033 9.49271 18.4236 8.73908C17.5427 7.98628 16.2249 8.31215 15.4862 9.4664C14.7482 10.6212 14.8636 12.1737 15.7432 12.9271ZM7.49273 16.3199C8.28925 15.9614 9.14467 15.7822 9.99969 15.7822C10.8555 15.7822 11.7111 15.9616 12.5081 16.3204C13.1787 16.6222 13.9491 16.442 14.4254 15.8722C14.9014 15.3024 14.9557 14.4953 14.5603 13.8638L12.6881 10.8742C12.098 9.93208 11.0932 9.36961 10.0001 9.36961C8.907 9.36961 7.90232 9.93208 7.31237 10.8742L5.43988 13.8639C5.04465 14.4952 5.0988 15.3021 5.57453 15.8722C6.04551 16.4357 6.80463 16.6182 7.47007 16.3301L7.49273 16.3199ZM7.36898 16.1014L7.3897 16.0921C8.21891 15.7189 9.10977 15.5322 9.99969 15.5322C10.8904 15.5322 11.781 15.7189 12.6107 16.0924C13.1776 16.3476 13.8281 16.1969 14.2335 15.7119C14.6398 15.2255 14.6866 14.5367 14.3484 13.9965L12.4762 11.0069C12.4762 11.0069 12.4762 11.0069 12.4762 11.0069C11.9309 10.1363 11.0053 9.61961 10.0001 9.61961C8.9949 9.61961 8.06945 10.1362 7.52425 11.0068L5.65178 13.9966C5.65177 13.9966 5.65178 13.9966 5.65178 13.9966C5.31372 14.5366 5.36032 15.2253 5.76646 15.712C6.16699 16.1911 6.80705 16.3438 7.36898 16.1014ZM5.70212 9.40083C5.50326 10.019 5.10531 10.4805 4.58147 10.7005C4.36762 10.7906 4.14634 10.8334 3.92568 10.8334C3.0615 10.8334 2.20673 10.1773 1.84024 9.13802C1.38145 7.83224 1.86428 6.41064 2.91641 5.96833C3.43938 5.74792 4.01761 5.79886 4.54405 6.11166C5.04497 6.40955 5.44069 6.9135 5.65826 7.53083C5.8757 8.14856 5.89118 8.81263 5.70212 9.40083ZM2.81953 5.73787C3.42206 5.48401 4.08343 5.54717 4.67175 5.89673C5.22918 6.22824 5.65956 6.78239 5.89404 7.44773C6.12846 8.11371 6.14693 8.83395 5.94012 9.47734C5.72248 10.1539 5.2794 10.6786 4.67827 10.931C4.43327 11.0342 4.17903 11.0834 3.92568 11.0834C2.93251 11.0834 1.99792 10.3369 1.60447 9.22116C1.11616 7.83137 1.60931 6.24663 2.81953 5.73787ZM3.25837 6.93964C2.69575 7.17617 2.45824 7.99467 2.72859 8.76413C2.9998 9.53292 3.67813 9.96574 4.24001 9.72894C4.49895 9.62016 4.69929 9.38092 4.80399 9.05552C4.91822 8.70046 4.90608 8.29189 4.76992 7.90485C4.63363 7.51809 4.39191 7.20597 4.08935 7.02621C3.9211 6.92609 3.74628 6.87556 3.57703 6.87556C3.46738 6.87556 3.35997 6.89683 3.25837 6.93964ZM4.53408 7.98782C4.41387 7.64675 4.20569 7.38613 3.96165 7.24113C3.82704 7.16104 3.69577 7.12556 3.57703 7.12556C3.50014 7.12556 3.42578 7.14039 3.35544 7.17002C3.16138 7.25161 3.0021 7.4431 2.9212 7.72174C2.84072 7.99899 2.84547 8.34258 2.96443 8.68121C3.08385 9.01957 3.28885 9.27187 3.5098 9.41289C3.72948 9.5531 3.95297 9.57862 4.14292 9.49856C4.32013 9.42412 4.47835 9.25139 4.566 8.97896C4.66181 8.68115 4.65405 8.32882 4.53408 7.98782ZM13.2105 8.47213C11.7724 8.0405 11.061 6.49276 11.5935 5.04646C11.8451 4.36246 12.3377 3.79277 12.9798 3.44166C13.6521 3.07418 14.4134 2.984 15.1211 3.19619C15.8298 3.40896 16.3887 3.89664 16.6893 4.56716C16.9762 5.20705 16.9907 5.93784 16.7385 6.62215C16.3015 7.80888 15.1572 8.58342 13.9732 8.58342C13.7185 8.58342 13.462 8.54747 13.2105 8.47213ZM16.5039 6.53575C16.7349 5.90887 16.7197 5.24601 16.4612 4.66943C16.1906 4.06593 15.6893 3.6278 15.0493 3.43565C14.4093 3.24375 13.7168 3.32373 13.0997 3.661C12.5103 3.98331 12.0587 4.50595 11.8281 5.13284C11.3412 6.45527 11.9936 7.84586 13.2824 8.23269C13.5099 8.30084 13.7421 8.33341 13.9732 8.33341C15.0518 8.33341 16.1029 7.62479 16.5039 6.53575ZM13.0784 5.52392C12.8151 6.23916 13.1332 6.90854 13.6919 7.07634C14.2681 7.24912 14.9882 6.86531 15.2536 6.14455C15.3842 5.79033 15.3747 5.43262 15.2409 5.13411C15.1179 4.85997 14.904 4.67133 14.6398 4.59196C14.3738 4.51224 14.0671 4.54667 13.7743 4.70681C13.4569 4.88039 13.2088 5.16961 13.0784 5.52392ZM14.7117 4.35253C15.0491 4.45389 15.318 4.69508 15.469 5.03185C15.6321 5.39579 15.6391 5.82159 15.4882 6.23092C15.1875 7.04783 14.3494 7.5345 13.6201 7.31581C12.8913 7.097 12.5431 6.25444 12.8438 5.43754C12.9944 5.02821 13.2822 4.69093 13.6543 4.48746C13.9986 4.29921 14.3742 4.2513 14.7117 4.35253ZM16.2934 12.0675C16.764 12.4708 17.5014 12.2449 17.9376 11.5637C18.3722 10.8835 18.3437 10.002 17.8738 9.59892C17.7155 9.46348 17.5271 9.39917 17.3302 9.39917C16.941 9.39917 16.5186 9.65057 16.2295 10.1024C15.7945 10.7831 15.8231 11.6648 16.2934 12.0675ZM16.44 10.2372C16.2494 10.5356 16.1619 10.8764 16.1718 11.1811C16.1818 11.4882 16.2885 11.7342 16.456 11.8776C16.6172 12.0158 16.8272 12.0531 17.0552 11.9832C17.2873 11.9121 17.5356 11.728 17.7271 11.4289C17.9175 11.1308 18.0049 10.7901 17.9951 10.4855C17.9851 10.1785 17.8785 9.93236 17.7111 9.78871C17.6001 9.69387 17.4701 9.64917 17.3302 9.64917C17.0474 9.64917 16.696 9.8372 16.44 10.2372ZM11.0834 4.58375C11.0834 6.29239 9.88467 7.75008 8.33331 7.75008C6.78206 7.75008 5.58344 6.29236 5.58344 4.58375C5.58344 2.87479 6.78201 1.41675 8.33331 1.41675C9.88472 1.41675 11.0834 2.87476 11.0834 4.58375ZM9.58575 4.58375C9.58575 3.61938 8.97255 2.93823 8.33331 2.93823C7.69412 2.93823 7.08113 3.61932 7.08113 4.58375C7.08113 5.54769 7.69405 6.2286 8.33331 6.2286C8.97262 6.2286 9.58575 5.54763 9.58575 4.58375ZM10.8334 4.58375C10.8334 6.19182 9.71187 7.50008 8.33331 7.50008C6.95488 7.50008 5.83344 6.19182 5.83344 4.58375C5.83344 2.97528 6.95488 1.66675 8.33331 1.66675C9.71187 1.66675 10.8334 2.97528 10.8334 4.58375ZM9.83575 4.58375C9.83575 3.5386 9.16167 2.68823 8.33331 2.68823C7.50496 2.68823 6.83113 3.5386 6.83113 4.58375C6.83113 5.6285 7.50496 6.4786 8.33331 6.4786C9.16167 6.4786 9.83575 5.6285 9.83575 4.58375Z" fill="#3A3B46"/>
</svg>
