<svg width="240" height="240" viewBox="0 0 240 240" fill="none" xmlns="http://www.w3.org/2000/svg">
<rect width="240" height="240" rx="120" fill="#DCDFED"/>
<rect x="180" y="180" width="60" height="60" rx="30" fill="#FFF1EC"/>
<path d="M217.875 208.875H211.125V202.125C211.125 201.827 211.006 201.54 210.795 201.33C210.585 201.119 210.298 201 210 201C209.702 201 209.415 201.119 209.205 201.33C208.994 201.54 208.875 201.827 208.875 202.125V208.875H202.125C201.827 208.875 201.54 208.994 201.33 209.205C201.119 209.415 201 209.702 201 210C201 210.298 201.119 210.585 201.33 210.795C201.54 211.006 201.827 211.125 202.125 211.125H208.875V217.875C208.875 218.173 208.994 218.46 209.205 218.67C209.415 218.881 209.702 219 210 219C210.298 219 210.585 218.881 210.795 218.67C211.006 218.46 211.125 218.173 211.125 217.875V211.125H217.875C218.173 211.125 218.46 211.006 218.67 210.795C218.881 210.585 219 210.298 219 210C219 209.702 218.881 209.415 218.67 209.205C218.46 208.994 218.173 208.875 217.875 208.875Z" fill="#FF7037"/>
<path d="M138.408 121.638C134.367 115.186 127.486 111.333 119.999 111.333C112.513 111.333 105.631 115.186 101.591 121.638L91.8552 137.185C90.2398 139.765 89.4944 142.744 89.6992 145.801C89.9041 148.858 91.0406 151.705 92.9855 154.035C94.9318 156.365 97.5036 157.957 100.423 158.64C103.342 159.322 106.334 159.031 109.076 157.797L109.255 157.716C116.154 154.672 124.04 154.699 130.922 157.797C132.697 158.596 134.578 159 136.475 159C137.507 159 138.545 158.88 139.573 158.64C142.492 157.958 145.064 156.366 147.011 154.037C148.957 151.707 150.094 148.86 150.299 145.802C150.505 142.744 149.759 139.765 148.144 137.184L138.408 121.638ZM143.011 150.535C140.534 153.498 136.528 154.435 133.041 152.866C128.896 151 124.447 150.067 119.997 150.067C115.551 150.067 111.103 150.999 106.961 152.863L106.843 152.916C103.383 154.414 99.4355 153.465 96.9863 150.535C94.5125 147.571 94.231 143.375 96.2862 140.092L106.023 124.545C109.091 119.646 114.315 116.722 119.999 116.722C125.683 116.722 130.908 119.646 133.977 124.545L143.712 140.091C145.768 143.375 145.486 147.572 143.011 150.535Z" fill="white"/>
<path d="M91.8224 123.642C94.5464 122.498 96.6158 120.098 97.6498 116.884C98.633 113.825 98.5524 110.372 97.4217 107.16C96.2904 103.95 94.2326 101.329 91.6279 99.7802C88.8904 98.1536 85.8836 97.8887 83.1641 99.0349C77.693 101.335 75.1823 108.727 77.5681 115.517C79.4738 120.922 83.9186 124.333 88.4123 124.333C89.5598 124.333 90.7104 124.111 91.8224 123.642ZM82.1874 113.573C80.7817 109.572 82.0167 105.316 84.9423 104.086C85.4706 103.863 86.0292 103.752 86.5994 103.752C87.4794 103.752 88.3885 104.015 89.2634 104.536C90.8367 105.471 92.0937 107.094 92.8024 109.105C93.5104 111.117 93.5735 113.242 92.9795 115.088C92.4351 116.78 91.3933 118.024 90.0468 118.59C87.1251 119.821 83.5977 117.571 82.1874 113.573Z" fill="white"/>
<path d="M111.332 107C118.501 107 124.333 100.197 124.333 91.835C124.333 83.471 118.501 76.6666 111.332 76.6666C104.164 76.6666 98.3327 83.471 98.3327 91.835C98.3327 100.197 104.164 107 111.332 107ZM111.332 81.9783C115.639 81.9783 119.145 86.4003 119.145 91.835C119.145 97.2677 115.639 101.688 111.332 101.688C107.025 101.688 103.521 97.2677 103.521 91.835C103.521 86.4003 107.025 81.9783 111.332 81.9783Z" fill="white"/>
<path d="M137.067 110.81C138.25 111.164 139.458 111.333 140.66 111.333C146.268 111.333 151.734 107.648 153.819 101.985C155.02 98.7256 154.941 95.2788 153.597 92.2806C152.19 89.1424 149.583 86.8641 146.255 85.8649C142.927 84.867 139.326 85.2829 136.117 87.0368C133.052 88.7128 130.704 91.4305 129.505 94.6903C126.973 101.567 130.366 108.798 137.067 110.81ZM134.787 96.2747C135.57 94.1462 137.066 92.3924 139.001 91.3343C140.791 90.3554 142.744 90.1063 144.5 90.6327C146.254 91.1597 147.652 92.414 148.438 94.1652C149.286 96.0576 149.322 98.2718 148.538 100.4C146.974 104.648 142.615 107.179 138.823 106.042C135.034 104.904 133.223 100.523 134.787 96.2747Z" fill="white"/>
<path d="M163.802 113.443C159.221 109.528 152.368 111.223 148.527 117.225C144.69 123.23 145.29 131.303 149.864 135.22C151.532 136.65 153.503 137.333 155.52 137.333C159.036 137.333 162.694 135.257 165.138 131.44C168.976 125.435 168.376 117.362 163.802 113.443ZM161.274 128.131C159.006 131.673 155.171 132.848 152.724 130.751C150.279 128.657 150.13 124.072 152.392 120.532C153.896 118.182 156.092 116.875 158.116 116.875C159.14 116.875 160.119 117.21 160.943 117.914C163.386 120.01 163.534 124.594 161.274 128.131Z" fill="white"/>
</svg>
