<svg width="88" height="88" viewBox="0 0 88 88" fill="none" xmlns="http://www.w3.org/2000/svg">
<g clip-path="url(#clip0_187_4053)">
<g filter="url(#filter0_d_187_4053)">
<path d="M44.0013 7.33337C36.2216 7.33337 28.7606 10.4238 23.2595 15.9249C17.7584 21.426 14.668 28.887 14.668 36.6667C14.668 56.4667 40.518 78.8334 41.618 79.7867C42.2821 80.3548 43.1273 80.6669 44.0013 80.6669C44.8753 80.6669 45.7205 80.3548 46.3846 79.7867C47.668 78.8334 73.3346 56.4667 73.3346 36.6667C73.3346 28.887 70.2442 21.426 64.7431 15.9249C59.242 10.4238 51.781 7.33337 44.0013 7.33337Z" fill="#E44A0C"/>
<path d="M46.0865 79.3853L46.0727 79.3956L46.0596 79.4067C45.4861 79.8973 44.7561 80.1669 44.0013 80.1669C43.2465 80.1669 42.5166 79.8973 41.943 79.4067L41.9393 79.4036C41.3549 78.8971 34.6682 73.1024 28.1197 64.9804C21.5273 56.804 15.168 46.3808 15.168 36.6667C15.168 29.0196 18.2058 21.6858 23.6131 16.2785C29.0204 10.8712 36.3542 7.83337 44.0013 7.83337C51.6484 7.83337 58.9823 10.8712 64.3895 16.2785C69.7968 21.6858 72.8346 29.0196 72.8346 36.6667C72.8346 46.3819 66.5199 56.8056 59.9511 64.981C53.3964 73.1391 46.6888 78.9379 46.0865 79.3853Z" stroke="white"/>
</g>
<g clip-path="url(#clip1_187_4053)">
<path d="M32.7948 33.1647C32.8196 33.1613 32.8445 33.1662 32.8693 33.1665C32.3515 28.2482 35.5105 25.5407 38.6705 25.0718C40.7321 24.7658 42.7287 25.4751 44.0001 26.4918C45.2718 25.4751 47.268 24.7658 49.3297 25.0718C52.4897 25.5407 55.6487 28.2482 55.1309 33.1668C55.1557 33.1665 55.1805 33.1616 55.2054 33.165C57.0992 33.4228 59.9657 35.5379 59.9995 38.9049C60.0494 43.8745 56.5206 45.4335 55.2274 47.994C52.9349 52.533 49.344 54.0703 44.0547 53.9975L43.9452 53.9975C38.6559 54.0703 35.065 52.533 32.7725 47.994C31.4793 45.4335 27.9505 43.8745 28.0004 38.9049C28.0342 35.5379 30.901 33.4228 32.7945 33.1647L32.7948 33.1647Z" fill="white"/>
<path d="M50.7037 42.3569C49.4252 41.1049 49.6368 38.843 51.1763 37.3046C52.7158 35.7663 55.0003 35.5341 56.2788 36.786C57.5573 38.038 57.3457 40.2999 55.8062 41.8383C54.2667 43.3766 51.9822 43.6088 50.7037 42.3569Z" fill="#FF7037"/>
<path d="M47.0454 35.5672C45.3442 34.9884 44.5421 32.8598 45.2538 30.8129C45.9656 28.766 47.9216 27.5758 49.6228 28.1546C51.324 28.7333 52.1262 30.8619 51.4144 32.9088C50.7027 34.9558 48.7466 36.1459 47.0454 35.5672Z" fill="#FF7037"/>
<path d="M32.188 41.8416C30.6485 40.3033 30.4369 38.0413 31.7154 36.7894C32.9939 35.5374 35.2784 35.7696 36.8179 37.308C38.3574 38.8463 38.569 41.1083 37.2905 42.3602C36.012 43.6121 33.7275 43.38 32.188 41.8416Z" fill="#FF7037"/>
<path d="M36.582 32.9077C35.8702 30.8607 36.6724 28.7322 38.3736 28.1534C40.0748 27.5746 42.0308 28.7648 42.7426 30.8118C43.4543 32.8587 42.6522 34.9873 40.951 35.566C39.2497 36.1448 37.2937 34.9546 36.582 32.9077Z" fill="#FF7037"/>
<path d="M37.3862 44.3358C37.9555 42.7752 39.0725 42.499 40.1832 40.6469C40.871 39.5 41.3209 36.3813 44.0006 36.369C46.68 36.381 47.1302 39.5 47.818 40.6469C48.9287 42.499 50.0457 42.7752 50.615 44.3358C50.9277 45.1929 50.6634 45.955 50.3063 46.5427C49.6898 47.5579 47.9418 48.1821 45.9872 47.5785C45.0245 47.2811 44.126 47.2449 44.0006 47.2412C43.875 47.2449 42.9764 47.2811 42.014 47.5785C40.0594 48.1821 38.3117 47.5579 37.6949 46.5427C37.3378 45.9547 37.0735 45.1929 37.3862 44.3358Z" fill="#FF7037"/>
</g>
</g>
<defs>
<filter id="filter0_d_187_4053" x="7.66797" y="0.333374" width="74.668" height="89.3336" filterUnits="userSpaceOnUse" color-interpolation-filters="sRGB">
<feFlood flood-opacity="0" result="BackgroundImageFix"/>
<feColorMatrix in="SourceAlpha" type="matrix" values="0 0 0 0 0 0 0 0 0 0 0 0 0 0 0 0 0 0 127 0" result="hardAlpha"/>
<feOffset dx="1" dy="1"/>
<feGaussianBlur stdDeviation="4"/>
<feComposite in2="hardAlpha" operator="out"/>
<feColorMatrix type="matrix" values="0 0 0 0 0 0 0 0 0 0 0 0 0 0 0 0 0 0 0.24 0"/>
<feBlend mode="normal" in2="BackgroundImageFix" result="effect1_dropShadow_187_4053"/>
<feBlend mode="normal" in="SourceGraphic" in2="effect1_dropShadow_187_4053" result="shape"/>
</filter>
<clipPath id="clip0_187_4053">
<rect width="88" height="88" fill="white"/>
</clipPath>
<clipPath id="clip1_187_4053">
<rect width="32" height="29" fill="white" transform="matrix(-1 -8.74228e-08 -8.74228e-08 1 60 25)"/>
</clipPath>
</defs>
</svg>
