<svg width="82" height="84" viewBox="0 0 82 84" fill="none" xmlns="http://www.w3.org/2000/svg">
<path d="M76.4414 43.3156C76.3867 43.2736 76.3205 43.2513 76.2607 43.218C84.3428 32.1758 80.5507 21.3798 73.6418 15.931C69.1343 12.376 63.3701 11.3359 58.9131 12.0238C57.2846 7.85246 53.4948 3.4236 48.1359 1.33076C39.922 -1.87711 28.5959 0.264829 22.9914 12.7263C22.9325 12.6916 22.8799 12.6459 22.8158 12.62C17.9255 10.6419 8.12358 11.7694 3.35803 19.7678C-3.67591 31.5734 2.599 40.132 2.13086 48.021C1.30113 62.0063 7.75485 70.5979 20.5125 77.669L20.7746 77.819C33.3298 85.2377 44.0612 86.4833 55.8622 78.7782C62.519 74.4317 73.1322 75.5403 79.9271 63.5979C84.5308 55.5068 80.6139 46.5263 76.4421 43.316L76.4414 43.3156Z" fill="#FA8AC0"/>
<path d="M20.7945 40.746C25.5957 39.506 28.2366 33.8116 26.6931 28.0273C25.1496 22.2429 20.0063 18.559 15.2051 19.7991C10.4039 21.0391 7.76304 26.7335 9.30653 32.5179C10.85 38.3022 15.9934 41.9861 20.7945 40.746Z" fill="white"/>
<path d="M38.9935 29.5332C43.8695 30.4806 48.7504 26.4935 49.8953 20.6278C51.0403 14.7621 48.0157 9.23913 43.1397 8.29181C38.2637 7.34449 33.3827 11.3316 32.2378 17.1973C31.0929 23.0629 34.1175 28.5859 38.9935 29.5332Z" fill="white"/>
<path d="M65.8122 64.874C71.6364 63.3072 75.2899 58.1924 73.9725 53.4499C72.655 48.7074 66.8656 46.1331 61.0413 47.7C55.2171 49.2668 51.5636 54.3816 52.8811 59.1241C54.1985 63.8665 59.988 66.4409 65.8122 64.874Z" fill="white"/>
<path d="M67.7311 37.5109C72.2821 33.595 73.3243 27.4105 70.0589 23.6974C66.7934 19.9844 60.4569 20.1488 55.9058 24.0647C51.3548 27.9806 50.3126 34.1651 53.5781 37.8782C56.8435 41.5913 63.18 41.4268 67.7311 37.5109Z" fill="white"/>
<path d="M49.9124 63.7181C50.7214 59.2096 48.4331 57.0198 48.3522 51.073C48.302 47.3906 51.5647 39.3229 45.1697 35.6231C38.7416 31.9816 33.3248 38.8173 30.0832 40.6154C24.8484 43.5193 21.7915 42.6494 18.2579 45.5983C16.3169 47.218 15.8892 49.4008 15.926 51.2941C15.9887 54.5642 19.3028 58.45 24.8199 59.685C27.5373 60.2931 29.7377 61.4373 30.0427 61.6002C30.3383 61.7811 32.4379 63.0983 34.3271 65.1271C38.1643 69.2468 43.2147 70.1491 46.1032 68.5683C47.7758 67.6525 49.4681 66.1946 49.9124 63.7181Z" fill="white"/>
</svg>
